<?xml version="1.0" encoding="UTF-8" standalone="no"?><!DOCTYPE svg PUBLIC "-//W3C//DTD SVG 1.1//EN" "http://www.w3.org/Graphics/SVG/1.1/DTD/svg11.dtd"><svg width="100%" height="100%" viewBox="0 0 1200 420" version="1.1" xmlns="http://www.w3.org/2000/svg" xmlns:xlink="http://www.w3.org/1999/xlink" xml:space="preserve" xmlns:serif="http://www.serif.com/" style="fill-rule:evenodd;clip-rule:evenodd;stroke-linejoin:round;stroke-miterlimit:2;"><g id="Alt"><rect x="-7.8" y="-6" width="1216.5" height="432" style="fill:#ccc;"/><rect x="358.6" y="94.5" width="72.4" height="72.4" style="fill:#fff;"/><rect x="437.7" y="94.5" width="72.4" height="72.4" style="fill:#fff;"/><rect x="674.8" y="94.5" width="72.4" height="72.4" style="fill:#fff;"/><rect x="753.9" y="94.5" width="72.4" height="72.4" style="fill:#fff;"/><rect x="516.7" y="94.5" width="72.4" height="72.4" style="fill:#fff;"/><rect x="595.8" y="94.5" width="72.4" height="72.4" style="fill:#fff;"/><rect x="832.9" y="94.5" width="72.4" height="72.4" style="fill:#fff;"/><rect x="912" y="94.5" width="72.4" height="72.4" style="fill:#fff;"/><rect x="200.5" y="94.5" width="72.4" height="72.4" style="fill:#fff;"/><rect x="279.6" y="94.5" width="72.4" height="72.4" style="fill:#fff;"/><rect x="991" y="94.5" width="72.4" height="72.4" style="fill:#fff;"/><rect x="121.5" y="94.5" width="72.4" height="72.4" style="fill:#fff;"/><rect x="408.3" y="174.4" width="72.4" height="72.4" style="fill:#fff;"/><rect x="487.4" y="174.4" width="72.4" height="72.4" style="fill:#fff;"/><rect x="724.6" y="174.4" width="72.4" height="72.4" style="fill:#fff;"/><rect x="803.6" y="174.4" width="72.4" height="72.4" style="fill:#fff;"/><rect x="566.4" y="174.4" width="72.4" height="72.4" style="fill:#fff;"/><rect x="645.5" y="174.4" width="72.4" height="72.4" style="fill:#fff;"/><rect x="882.7" y="174.4" width="72.4" height="72.4" style="fill:#fff;"/><rect x="961.7" y="174.4" width="72.4" height="72.4" style="fill:#fff;"/><rect x="250.2" y="174.4" width="72.4" height="72.4" style="fill:#fff;"/><rect x="329.3" y="174.4" width="72.4" height="72.4" style="fill:#fff;"/><rect x="171.2" y="174.4" width="72.4" height="72.4" style="fill:#fff;"/><rect x="444.9" y="254.3" width="72.4" height="72.4" style="fill:#fff;"/><rect x="524" y="254.3" width="72.4" height="72.4" style="fill:#fff;"/><rect x="761.1" y="254.3" width="72.4" height="72.4" style="fill:#fff;"/><rect x="840.2" y="254.3" width="72.4" height="72.4" style="fill:#fff;"/><g><path d="M525.3,198.7l0,-13.7l1.5,0.8l0,13.9l-1.5,-1Z" style="fill:#f00;fill-rule:nonzero;"/></g><rect x="603" y="254.3" width="72.4" height="72.4" style="fill:#fff;"/><rect x="682.1" y="254.3" width="72.4" height="72.4" style="fill:#fff;"/><rect x="919.2" y="254.3" width="72.4" height="72.4" style="fill:#fff;"/><g><path d="M873.8,277.3c0,0.4 -0.2,0.6 -0.6,0.6c-0.5,0 -0.7,-0.2 -0.7,-0.6c0,-0.4 0.2,-0.7 0.7,-0.7c0.4,0.1 0.6,0.3 0.6,0.7Zm0.4,-2.1c0,0.5 -0.2,0.7 -0.6,0.7c-0.5,0 -0.7,-0.2 -0.7,-0.7c0,-0.4 0.2,-0.6 0.7,-0.6c0.5,0 0.6,0.2 0.6,0.6Zm0,4.3c0,0.4 -0.2,0.7 -0.7,0.7c-0.5,0 -0.7,-0.2 -0.7,-0.7c0,-0.5 0.2,-0.7 0.7,-0.7c0.5,0 0.7,0.2 0.7,0.7Zm1.3,-6.1c0,0.4 -0.2,0.7 -0.7,0.7c-0.4,0 -0.7,-0.2 -0.7,-0.6c0,-0.5 0.2,-0.7 0.7,-0.7c0.4,-0.1 0.7,0.1 0.7,0.6Zm0,7.9c0,0.4 -0.2,0.7 -0.7,0.7c-0.4,0 -0.7,-0.2 -0.7,-0.7c0,-0.5 0.2,-0.7 0.7,-0.7c0.4,0 0.7,0.2 0.7,0.7Zm1.8,-9.1c0,0.4 -0.2,0.7 -0.7,0.7c-0.4,0 -0.6,-0.2 -0.6,-0.7c0,-0.5 0.2,-0.7 0.6,-0.7c0.4,0 0.7,0.2 0.7,0.7Zm0,10.2c0,0.5 -0.2,0.7 -0.7,0.7c-0.4,0 -0.6,-0.2 -0.6,-0.6c0,-0.5 0.2,-0.7 0.6,-0.7c0.4,0 0.7,0.2 0.7,0.6Zm2.1,-10.7c0,0.4 -0.2,0.7 -0.6,0.7c-0.5,0 -0.7,-0.2 -0.7,-0.7c0,-0.5 0.2,-0.7 0.7,-0.7c0.4,0.1 0.6,0.3 0.6,0.7Zm0,11.2c0,0.4 -0.2,0.7 -0.6,0.7c-0.5,0 -0.7,-0.2 -0.7,-0.7c0,-0.5 0.2,-0.7 0.7,-0.7c0.4,0 0.6,0.3 0.6,0.7Zm2.1,-10.7c0,0.4 -0.2,0.7 -0.6,0.7c-0.5,0 -0.7,-0.2 -0.7,-0.7c0,-0.5 0.2,-0.7 0.7,-0.7c0.4,0 0.6,0.2 0.6,0.7Zm0,10.3c0,0.4 -0.2,0.6 -0.6,0.6c-0.5,0 -0.7,-0.2 -0.7,-0.6c0,-0.5 0.2,-0.7 0.7,-0.7c0.4,0 0.6,0.2 0.6,0.7Zm1.8,-9.1c0,0.4 -0.2,0.7 -0.7,0.7c-0.5,0 -0.7,-0.2 -0.7,-0.7c0,-0.5 0.2,-0.7 0.7,-0.7c0.5,0 0.7,0.2 0.7,0.7Zm0,7.9c0,0.4 -0.2,0.7 -0.7,0.7c-0.5,0 -0.7,-0.2 -0.7,-0.7c0,-0.5 0.2,-0.7 0.7,-0.7c0.5,0 0.7,0.2 0.7,0.7Zm1.3,-6.1c0,0.5 -0.2,0.7 -0.7,0.7c-0.4,0 -0.7,-0.2 -0.7,-0.7c0,-0.4 0.2,-0.6 0.7,-0.6c0.4,-0.1 0.7,0.2 0.7,0.6Zm0,4.3c0,0.4 -0.2,0.7 -0.7,0.7c-0.4,0 -0.7,-0.2 -0.7,-0.7c0,-0.5 0.2,-0.7 0.7,-0.7c0.4,0 0.7,0.2 0.7,0.7Zm0.4,-2.2c0,0.4 -0.2,0.6 -0.6,0.6c-0.5,0 -0.7,-0.2 -0.7,-0.6c0,-0.4 0.2,-0.7 0.7,-0.7c0.4,0.1 0.6,0.3 0.6,0.7Z" style="fill:#f00;fill-rule:nonzero;"/><path d="M888.9,285.9c0,-0.5 0.2,-0.9 0.5,-1.3c0.4,-0.3 0.8,-0.5 1.3,-0.5c0.5,0 0.9,0.2 1.3,0.5c0.4,0.3 0.5,0.8 0.5,1.3c0,0.5 -0.2,0.9 -0.5,1.3c-0.3,0.4 -0.8,0.5 -1.3,0.5c-0.5,0 -0.9,-0.2 -1.3,-0.5c-0.4,-0.4 -0.5,-0.8 -0.5,-1.3Z" style="fill:#f00;fill-rule:nonzero;"/></g><rect x="286.8" y="254.3" width="72.4" height="72.4" style="fill:#fff;"/><rect x="365.9" y="254.3" width="72.4" height="72.4" style="fill:#fff;"/><rect x="207.8" y="254.3" width="72.4" height="72.4" style="fill:#fff;"/><rect x="336" y="14.6" width="72.4" height="72.4" style="fill:#fff;"/><g><g><path d="M394.8,74.8c-0.5,-1.4 -1.2,-2.8 -1.9,-4.2c-0.7,-1.4 -1.5,-2.7 -2.4,-3.9c-0.9,-1.2 -1.9,-2.3 -3,-3.3c-1.1,-1 -2.3,-1.8 -3.7,-2.5l2.4,-1.3c1.1,1 2.1,2.2 3,3.3c0.9,1.1 1.8,2.4 2.5,3.7c0.8,1.3 1.4,2.6 2,4c0.6,1.4 1.1,2.7 1.6,4.1l-0.5,0l0,0.1Z" style="fill:#a00;fill-rule:nonzero;"/></g></g><rect x="415.1" y="14.6" width="72.4" height="72.4" style="fill:#fff;"/><g><g><path d="M453.4,27.2c0.4,0 0.6,0.2 0.8,0.6c0.2,0.4 0.3,1 0.3,1.7l0,10.1c0,0.4 0.1,0.6 0.2,0.8c0.1,0.2 0.3,0.2 0.7,0.2c0,1.1 -0.4,1.7 -1.1,1.7c-0.8,0 -1.2,-0.8 -1.2,-2.5l0,-9.8c0,-0.8 -0.3,-1.1 -0.9,-1.1c0,-1.2 0.4,-1.7 1.2,-1.7Z" style="fill:#f00;fill-rule:nonzero;"/></g></g><rect x="652.3" y="14.6" width="72.4" height="72.4" style="fill:#fff;"/><rect x="731.3" y="14.6" width="72.4" height="72.4" style="fill:#fff;"/><rect x="494.1" y="14.6" width="72.4" height="72.4" style="fill:#fff;"/><rect x="573.2" y="14.6" width="72.4" height="72.4" style="fill:#fff;"/><rect x="810.4" y="14.6" width="72.4" height="72.4" style="fill:#fff;"/><rect x="889.4" y="14.6" width="72.4" height="72.4" style="fill:#fff;"/><rect x="177.9" y="14.6" width="72.4" height="72.4" style="fill:#fff;"/><g><g><path d="M219.2,41.7c2.3,-1.4 3.4,-2.8 3.4,-4.1c0,-0.3 -0.1,-0.7 -0.2,-1c-0.1,-0.3 -0.3,-0.7 -0.5,-0.9c-0.2,-0.3 -0.5,-0.5 -0.8,-0.7c-0.3,-0.2 -0.6,-0.3 -1,-0.3c-0.6,0 -0.9,0.2 -0.9,0.5c0.4,0.3 0.6,0.7 0.8,1.1c0.1,0.5 0.2,0.9 0.1,1.4c-0.1,0.4 -0.3,0.8 -0.6,1.2c-0.3,0.3 -0.7,0.5 -1.2,0.5c-0.3,0 -0.6,-0.1 -0.9,-0.2c-0.3,-0.2 -0.5,-0.4 -0.6,-0.6c-0.1,-0.2 -0.3,-0.5 -0.4,-0.8c-0.1,-0.3 -0.1,-0.6 -0.1,-0.9c0,-0.5 0.1,-0.9 0.3,-1.3c0.2,-0.4 0.4,-0.8 0.7,-1.1c0.3,-0.3 0.7,-0.6 1.1,-0.7c0.4,-0.1 0.8,-0.3 1.3,-0.3c0.5,0 1,0.1 1.5,0.4c0.5,0.3 0.9,0.7 1.2,1.1c0.3,0.5 0.6,1 0.8,1.5c0.2,0.6 0.3,1.1 0.3,1.6c0.6,-0.7 1.2,-1.5 1.8,-2.4c0.6,-0.9 1.2,-1.9 1.7,-3c0.5,-1 1,-2.1 1.4,-3.1c0.4,-1 0.7,-2 0.8,-2.9l0.6,0c-0.1,0.8 -0.3,1.6 -0.5,2.6c-0.3,0.9 -0.6,1.9 -1,2.9c-0.4,1 -0.8,2 -1.3,3.1c-0.5,1 -1,2 -1.6,2.9c-0.6,0.9 -1.1,1.8 -1.7,2.5c-0.6,0.8 -1.2,1.4 -1.8,1.9l-2.7,-0.9Z" style="fill:#f00;fill-rule:nonzero;"/></g></g><rect x="257" y="14.6" width="72.4" height="72.4" style="fill:#fff;"/><g><g><path d="M314.6,26.6c-0.1,1 -0.3,2.1 -0.5,3.2c-0.2,1.2 -0.5,2.4 -0.8,3.6c-0.3,1.2 -0.8,2.4 -1.3,3.5c-0.5,1.1 -1.2,2.1 -1.9,3c-0.7,0.9 -1.6,1.6 -2.6,2.1c-1,0.5 -2.1,0.8 -3.3,0.8c-1.2,0 -2.2,-0.3 -2.8,-0.9c-0.7,-0.6 -1,-1.6 -0.9,-2.8c0,-0.7 0.1,-1.2 0.3,-1.5c0.2,-0.3 0.5,-0.5 0.8,-0.6c0.3,-0.1 0.7,-0.1 1.2,-0.1c0.4,0 0.9,0.1 1.3,0.1c1,0 1.7,-0.2 2.3,-0.7c0.5,-0.5 0.8,-1.1 0.8,-1.8c0,-0.2 0,-0.4 -0.1,-0.6c-0.1,-0.2 -0.1,-0.4 -0.3,-0.6c-0.1,-0.2 -0.2,-0.3 -0.4,-0.4c-0.2,-0.1 -0.4,-0.2 -0.6,-0.2c-0.3,0 -0.4,0.1 -0.4,0.3c0,0.1 0.1,0.3 0.2,0.5c0.1,0.2 0.2,0.4 0.2,0.6c0,0.4 -0.1,0.8 -0.3,1c-0.2,0.3 -0.4,0.4 -0.7,0.6c-0.3,0.1 -0.6,0.1 -0.9,0.1c-0.3,0 -0.6,-0.1 -0.9,-0.3c-0.3,-0.2 -0.5,-0.4 -0.7,-0.7c-0.2,-0.3 -0.3,-0.6 -0.3,-1c0,-0.7 0.2,-1.3 0.6,-1.7c0.4,-0.4 0.8,-0.7 1.3,-0.9c0.5,-0.2 1,-0.2 1.6,0c0.6,0.1 1,0.5 1.5,0.9c0.6,0.7 0.9,1.4 0.9,2.2c0.1,0.8 -0.1,1.5 -0.4,2.2c-0.3,0.7 -0.8,1.2 -1.4,1.7c-0.6,0.5 -1.4,0.7 -2.2,0.7l-1.6,0c-0.3,0 -0.6,0 -0.8,0.1c-0.2,0.1 -0.3,0.2 -0.3,0.4c0,0.3 0.1,0.6 0.2,0.8c0.2,0.2 0.3,0.4 0.6,0.5c0.2,0.1 0.5,0.2 0.8,0.3c0.3,0.1 0.5,0.1 0.8,0.1c1.3,0 2.5,-0.2 3.5,-0.7c1,-0.5 1.9,-1.2 2.7,-2.1c0.7,-0.7 1.2,-1.6 1.7,-2.6c0.5,-1 0.9,-2 1.3,-3c0.3,-1 0.6,-2.1 0.8,-3.1c0.2,-1.1 0.4,-2 0.5,-2.9l0.5,0l0,-0.1Z" style="fill:#f00;fill-rule:nonzero;"/></g></g><g><g><path d="M310.4,110.5c0,0.4 -0.2,0.6 -0.6,0.6c-0.5,0 -0.7,-0.2 -0.7,-0.6c0,-0.4 0.2,-0.7 0.7,-0.7c0.4,0.1 0.6,0.3 0.6,0.7Zm0.5,-2.1c0,0.5 -0.2,0.7 -0.6,0.7c-0.5,0 -0.7,-0.2 -0.7,-0.7c0,-0.4 0.2,-0.6 0.7,-0.6c0.5,0 0.6,0.2 0.6,0.6Zm0,4.3c0,0.4 -0.2,0.7 -0.7,0.7c-0.5,0 -0.7,-0.2 -0.7,-0.7c0,-0.5 0.2,-0.7 0.7,-0.7c0.5,0 0.7,0.2 0.7,0.7Zm1.2,-6.1c0,0.4 -0.2,0.7 -0.7,0.7c-0.4,0 -0.7,-0.2 -0.7,-0.6c0,-0.5 0.2,-0.7 0.7,-0.7c0.5,-0.1 0.7,0.1 0.7,0.6Zm0,7.9c0,0.4 -0.2,0.7 -0.7,0.7c-0.4,0 -0.7,-0.2 -0.7,-0.7c0,-0.5 0.2,-0.7 0.7,-0.7c0.5,0 0.7,0.2 0.7,0.7Zm1.8,-9.1c0,0.4 -0.2,0.7 -0.7,0.7c-0.4,0 -0.6,-0.2 -0.6,-0.7c0,-0.5 0.2,-0.7 0.6,-0.7c0.5,0 0.7,0.2 0.7,0.7Zm0,10.2c0,0.5 -0.2,0.7 -0.7,0.7c-0.4,0 -0.6,-0.2 -0.6,-0.6c0,-0.5 0.2,-0.7 0.6,-0.7c0.5,0 0.7,0.2 0.7,0.6Zm2.1,-10.7c0,0.4 -0.2,0.7 -0.6,0.7c-0.5,0 -0.7,-0.2 -0.7,-0.7c0,-0.5 0.2,-0.7 0.7,-0.7c0.4,0.1 0.6,0.3 0.6,0.7Zm0,11.2c0,0.4 -0.2,0.7 -0.6,0.7c-0.5,0 -0.7,-0.2 -0.7,-0.7c0,-0.5 0.2,-0.7 0.7,-0.7c0.4,0 0.6,0.3 0.6,0.7Zm2.2,-10.7c0,0.4 -0.2,0.7 -0.6,0.7c-0.5,0 -0.7,-0.2 -0.7,-0.7c0,-0.5 0.2,-0.7 0.7,-0.7c0.3,0 0.6,0.2 0.6,0.7Zm0,10.3c0,0.4 -0.2,0.6 -0.6,0.6c-0.5,0 -0.7,-0.2 -0.7,-0.6c0,-0.5 0.2,-0.7 0.7,-0.7c0.3,0 0.6,0.2 0.6,0.7Zm1.8,-9.1c0,0.4 -0.2,0.7 -0.7,0.7c-0.5,0 -0.7,-0.2 -0.7,-0.7c0,-0.5 0.2,-0.7 0.7,-0.7c0.5,0 0.7,0.2 0.7,0.7Zm0,7.9c0,0.4 -0.2,0.7 -0.7,0.7c-0.5,0 -0.7,-0.2 -0.7,-0.7c0,-0.5 0.2,-0.7 0.7,-0.7c0.5,0 0.7,0.2 0.7,0.7Zm1.2,-6.1c0,0.5 -0.2,0.7 -0.7,0.7c-0.4,0 -0.7,-0.2 -0.7,-0.7c0,-0.4 0.2,-0.6 0.7,-0.6c0.5,-0 0.7,0.2 0.7,0.6Zm0,4.3c0,0.4 -0.2,0.7 -0.7,0.7c-0.4,0 -0.7,-0.2 -0.7,-0.7c0,-0.5 0.2,-0.7 0.7,-0.7c0.5,0 0.7,0.2 0.7,0.7Zm0.4,-2.2c0,0.4 -0.2,0.6 -0.6,0.6c-0.5,0 -0.7,-0.2 -0.7,-0.6c0,-0.4 0.2,-0.7 0.7,-0.7c0.4,0.1 0.6,0.3 0.6,0.7Z" style="fill:#f00;fill-rule:nonzero;"/><path d="M320.3,117.4l0.9,1.6l-1.3,1.3l3.5,2.5c0,0 0.1,0.1 0.1,0.2c0.1,0.1 0.1,0.1 0.2,0.2c0.1,0.1 0.2,0.3 0.2,0.5c0.1,0.2 0.1,0.5 0.1,0.8c-0.2,-0.2 -0.4,-0.4 -0.7,-0.6c-0.3,-0.2 -0.6,-0.4 -1,-0.7c-0.4,-0.3 -0.9,-0.6 -1.4,-0.9c-0.5,-0.3 -1.2,-0.7 -1.9,-1.2l-1.9,1.4l3.4,2.2c0.1,0.1 0.3,0.2 0.4,0.4c0.1,0.1 0.2,0.3 0.3,0.5c0.1,0.2 0.2,0.6 0.2,1c-0.2,-0.2 -0.5,-0.5 -0.8,-0.7c-0.3,-0.3 -0.6,-0.5 -1.1,-0.7c-0.6,-0.3 -1,-0.6 -1.4,-0.7c-0.3,-0.2 -0.6,-0.4 -0.9,-0.5c-0.3,-0.2 -0.6,-0.3 -0.9,-0.5c-0.3,-0.2 -0.8,-0.4 -1.3,-0.7c0,0 0.1,-0.1 0.3,-0.3c0.2,-0.2 0.5,-0.4 0.8,-0.6c0.3,-0.2 0.6,-0.5 0.9,-0.7c0.3,-0.2 0.5,-0.4 0.7,-0.5l-0.4,-0.2c0.3,-0.2 0.5,-0.4 0.8,-0.6c0.3,-0.2 0.5,-0.3 0.7,-0.5c0.2,-0.1 0.5,-0.3 0.7,-0.5l0.8,-1.5Z" style="fill:#f00;fill-rule:nonzero;"/></g></g><g><g><path d="M631.5,108.2c0.4,0.4 0.6,0.8 0.8,1.2c0.2,0.4 0.3,0.9 0.3,1.5c0,1.1 -0.4,1.9 -1.1,2.5c-0.3,0.3 -0.8,0.5 -1.3,0.8c-0.5,0.2 -1.1,0.4 -1.8,0.6c0.4,0.3 0.9,0.6 1.3,0.9c0.5,0.3 1,0.7 1.5,1.2c0.5,0.4 1,0.9 1.5,1.4c0.5,0.5 1.1,1.1 1.7,1.7l0.4,1.3c-0.3,-0.4 -0.6,-0.7 -0.9,-1c-0.3,-0.3 -0.7,-0.6 -1,-1c-0.4,-0.3 -0.9,-0.6 -1.3,-0.9c-0.4,-0.3 -0.9,-0.5 -1.4,-0.8c-0.4,-0.3 -0.8,-0.6 -1.3,-0.7c-0.5,-0.2 -0.9,-0.4 -1.4,-0.5c-0.5,-0.2 -0.9,-0.4 -1.4,-0.6c-0.5,-0.1 -1,-0.3 -1.4,-0.4l-1.6,-3.3c0.6,0.3 1.2,0.5 1.8,0.7c0.6,0.2 1.2,0.3 1.9,0.4c0.5,0.1 1,0 1.5,0c0.5,0 0.9,-0.2 1.2,-0.5c0.5,-0.2 0.9,-0.5 1.2,-0.9c0.3,-0.4 0.4,-0.8 0.3,-1.2l0,-0.4c0,-0.2 0,-0.3 -0.1,-0.4c-0.1,-0.1 -0.2,-0.2 -0.2,-0.4c-0.1,-0.1 -0.1,-0.2 -0.2,-0.4c-0.1,-0.1 -0.1,-0.2 -0.2,-0.3c-0.1,-0.1 -0.2,-0.1 -0.3,-0.2c-0.1,-0.1 -0.2,-0.1 -0.4,-0.2l-0.8,0c-0.1,0 -0.2,0 -0.3,0.1c0,0.3 -0.1,0.6 -0.2,0.9c-0.1,0.3 -0.3,0.5 -0.6,0.8c-0.2,0.2 -0.5,0.4 -0.8,0.6c-0.3,0.2 -0.6,0.2 -0.8,0.2c-0.5,0 -0.9,-0.1 -1.1,-0.4c-0.4,-0.3 -0.6,-0.6 -0.6,-0.9c0,-0.4 0.1,-0.8 0.2,-1.1c0.2,-0.3 0.4,-0.6 0.7,-0.9c0.2,-0.1 0.3,-0.2 0.5,-0.3c0.1,-0.1 0.3,-0.2 0.6,-0.3c0.3,-0.2 0.7,-0.4 1.1,-0.4c0.1,-0.1 0.2,-0.1 0.4,-0.1l1.1,0c0.9,0.4 1.8,0.9 2.5,1.7Z" style="fill:#f00;fill-rule:nonzero;"/></g></g><g><g><path d="M365.5,33.3l2.8,0l0.1,-2.8l0,-0.8c0,-0.2 -0.1,-0.4 -0.2,-0.6c-0.1,-0.2 -0.3,-0.3 -0.5,-0.3c-0.2,0 -0.5,0 -0.9,0.1l-0.6,-1.6c0.2,-0.2 0.5,-0.4 0.7,-0.5c0.2,-0.1 0.5,-0.3 0.8,-0.3c0.3,-0.1 0.5,0 0.8,0c0.3,0.1 0.5,0.3 0.8,0.5c0.2,0.2 0.3,0.4 0.4,0.6c0.1,0.2 0.2,0.5 0.3,0.9c0.1,0.4 0.2,1 0.2,1.7l0,3l0.8,0l1.3,1.7l-2.3,0l0,2.1c-0.1,0.8 0,1.5 0,2.1c0.1,0.8 0.3,1.4 0.7,1.7c0.4,0.3 0.8,0.4 1.3,0.3c0.5,-0.1 1,-0.4 1.4,-0.9c0.4,-0.5 0.9,-1.1 1.2,-1.9c0.2,-0.4 0.3,-0.9 0.3,-1.4l-0.2,0c-0.3,0 -0.6,0 -0.8,-0.1c-0.3,-0.1 -0.5,-0.2 -0.7,-0.3c-0.2,-0.2 -0.3,-0.4 -0.4,-0.7c-0.1,-0.3 -0.2,-0.7 -0.2,-1.1c0,-0.6 0.2,-1.1 0.4,-1.4c0.2,-0.3 0.5,-0.6 0.8,-0.7c0.3,-0.1 0.7,-0.1 1,-0.1c0.4,0.1 0.7,0.3 1.1,0.5c0.3,0.3 0.6,0.6 0.9,1c0.2,0.4 0.4,0.8 0.4,1.4c0.1,0.9 0,1.9 -0.3,2.8c-0.4,1 -0.9,1.8 -1.5,2.6c-0.6,0.8 -1.4,1.4 -2.1,1.8c-0.8,0.5 -1.5,0.7 -2.2,0.7c-0.7,0 -1.3,-0.3 -1.8,-1c-0.5,-0.6 -0.8,-1.6 -0.9,-3.1l0,-4.4l-1.3,0l-1.6,-1.5Z" style="fill:#f00;fill-rule:nonzero;"/></g></g><rect x="968.5" y="14.6" width="72.4" height="72.4" style="fill:#fff;"/><rect x="98.9" y="14.6" width="72.4" height="72.4" style="fill:#fff;"/><g><g><path d="M153.3,41.7c1.3,-0.7 2.6,-1.5 3.7,-2.5c1.1,-1 2.1,-2.2 3,-3.4c0.9,-1.2 1.7,-2.5 2.4,-3.9c0.7,-1.4 1.3,-2.7 1.8,-4l0.6,0c-0.5,1.4 -1,2.8 -1.6,4.2c-0.6,1.4 -1.3,2.7 -2.1,4c-0.8,1.3 -1.6,2.5 -2.5,3.7c-0.9,1.2 -1.9,2.2 -3,3.2l-2.3,-1.3Z" style="fill:#f00;fill-rule:nonzero;"/></g></g><g><g><path d="M160.9,108.7c0,0.4 -0.1,0.8 -0.2,1.2c-0.2,0.4 -0.4,0.7 -0.6,0.9c-0.3,0.3 -0.6,0.5 -0.9,0.6c-0.3,0.1 -0.6,0.2 -0.9,0.2c-0.6,0 -1,-0.2 -1.4,-0.6c-0.4,-0.4 -0.5,-0.8 -0.5,-1.3c0,-0.4 0.1,-0.8 0.2,-1.2c0.2,-0.4 0.4,-0.7 0.6,-0.9c0.3,-0.3 0.5,-0.5 0.9,-0.6c0.4,-0.1 0.6,-0.2 1,-0.2c0.5,0 1,0.2 1.4,0.6c0.3,0.3 0.4,0.8 0.4,1.3Zm-1.1,0.5c0,-0.4 -0.1,-0.7 -0.3,-1c-0.2,-0.3 -0.4,-0.5 -0.8,-0.5c-0.3,0 -0.6,0.1 -0.9,0.4c-0.3,0.3 -0.4,0.6 -0.4,1.1c0,0.4 0.1,0.7 0.3,1c0.2,0.3 0.4,0.4 0.8,0.4c0.3,0 0.6,-0.1 0.9,-0.4c0.3,-0.2 0.4,-0.5 0.4,-1Z" style="fill:#f00;fill-rule:nonzero;"/></g></g><rect x="19.1" y="14.6" width="72.4" height="72.4" style="fill:#fff;"/><g><rect x="19.1" y="94.5" width="95.2" height="72.4" style="fill:#fff;"/></g><text x="25.627px" y="164.151px" style="font-family:'LucidaGrande', 'Lucida Grande', sans-serif;font-weight:500;font-size:41.564px;fill:#999;">⇥</text><g><rect x="19.1" y="174.4" width="147.4" height="72.4" style="fill:#fff;"/></g><text x="26.655px" y="232.612px" style="font-family:'LucidaGrande', 'Lucida Grande', sans-serif;font-weight:500;font-size:35.765px;fill:#999;">⇪</text><g><rect x="19.1" y="254.3" width="181.5" height="72.4" style="fill:#fff;"/></g><text x="26.069px" y="318.952px" style="font-family:'LucidaGrande', 'Lucida Grande', sans-serif;font-weight:500;font-size:36.328px;fill:#999;">⇧</text><g><rect x="999.5" y="254.4" width="181.5" height="72.4" style="fill:#fff;"/></g><text x="1141.285px" y="318.952px" style="font-family:'LucidaGrande', 'Lucida Grande', sans-serif;font-weight:500;font-size:36.328px;fill:#999;">⇧</text><g><rect x="1040.9" y="174.5" width="140.1" height="72.4" style="fill:#fff;"/></g><text x="1091.49px" y="220.404px" style="font-family:'Helvetica';font-size:25.711px;fill:#999;">⏎</text><g><rect x="1071.1" y="94.5" width="109.9" height="72.4" style="fill:#fff;"/></g><g><rect x="1048.2" y="14.7" width="132.8" height="72.4" style="fill:#fff;"/></g><text x="1146.409px" y="75.029px" style="font-family:'LucidaGrande', 'Lucida Grande', sans-serif;font-weight:500;font-size:23.028px;fill:#999;">⌫</text><g><rect x="19.1" y="333" width="101.2" height="72.4" style="fill:#fff;"/></g><text x="90.812px" y="362.648px" style="font-family:'LucidaGrande', 'Lucida Grande', sans-serif;font-weight:500;font-size:29.213px;fill:#999;">⌃</text><g><rect x="127" y="333" width="101.2" height="72.4" style="fill:#fff;"/></g><text x="199.91px" y="354.42px" style="font-family:'LucidaGrande', 'Lucida Grande', sans-serif;font-weight:500;font-size:19.966px;fill:#999;">⌥</text><g><rect x="234.9" y="333" width="101.2" height="72.4" style="fill:#fff;"/></g><text x="310.811px" y="354.044px" style="font-family:'LucidaGrande', 'Lucida Grande', sans-serif;font-weight:500;font-size:20.797px;fill:#999;">⌘</text><g><rect x="342.5" y="333" width="406" height="72.4" style="fill:#fff;"/></g><g><rect x="755.4" y="333" width="101.2" height="72.4" style="fill:#fff;"/></g><text x="758.117px" y="354.024px" style="font-family:'LucidaGrande', 'Lucida Grande', sans-serif;font-weight:500;font-size:21.897px;fill:#999;">⌘</text><g><rect x="863.5" y="333" width="101.2" height="72.4" style="fill:#fff;"/></g><text x="872.372px" y="354.42px" style="font-family:'LucidaGrande', 'Lucida Grande', sans-serif;font-weight:500;font-size:18.583px;fill:#999;">⌥</text><g><rect x="971.6" y="333" width="101.2" height="72.4" style="fill:#fff;"/></g><g><rect x="1079.8" y="333" width="101.2" height="72.4" style="fill:#fff;"/></g><g><g><g><path d="M851.4,29.5c0.2,-0.3 0.5,-0.6 0.9,-0.8c0.4,-0.2 0.8,-0.4 1.2,-0.4c0.4,-0.1 0.8,-0.1 1.3,0c0.4,0.1 0.8,0.2 1.2,0.5c0.4,0.3 0.7,0.6 0.8,0.9c0.1,0.3 0.2,0.7 0.2,1.1c0,0.4 -0.1,0.8 -0.3,1.1c-0.2,0.4 -0.3,0.7 -0.6,1c-0.2,0.3 -0.5,0.6 -0.8,0.8c-0.3,0.2 -0.7,0.3 -1,0.4c-0.4,0.1 -0.7,0 -1.1,-0.1c-0.4,-0.1 -0.7,-0.3 -1,-0.5c-0.3,-0.2 -0.6,-0.5 -0.8,-0.8c-0.2,-0.3 -0.3,-0.7 -0.4,-1c-0.1,-0.4 -0.1,-0.7 0,-1.1c-0,-0.4 0.1,-0.8 0.4,-1.1Zm1.3,0.7c-0.2,0.2 -0.3,0.4 -0.4,0.7c-0.1,0.2 -0.2,0.5 -0.2,0.7c0,0.2 0,0.5 0.1,0.7c0.1,0.2 0.2,0.4 0.4,0.5c0.2,0.2 0.4,0.2 0.6,0.2c0.2,0 0.5,0 0.7,-0.1c0.2,-0.1 0.5,-0.2 0.7,-0.4c0.2,-0.2 0.4,-0.3 0.6,-0.5c0.2,-0.2 0.3,-0.4 0.4,-0.6c0.1,-0.2 0.1,-0.5 0.1,-0.7c0,-0.2 0,-0.5 -0.1,-0.7c-0.1,-0.2 -0.2,-0.4 -0.4,-0.5c-0.2,-0.1 -0.4,-0.2 -0.6,-0.2c-0.2,0 -0.5,0 -0.7,0.1c-0.2,0.1 -0.5,0.2 -0.7,0.3c-0.2,0.2 -0.3,0.4 -0.5,0.5Z" style="fill:#f00;fill-rule:nonzero;"/></g></g></g><g><g><path d="M217,184.4l1.5,1.2l0,1.7l1.9,0l1.5,1.5l-3.5,0l0,12.1c0,0 -0.5,-0.5 -0.6,-0.6c-0.2,-1 -0.5,-1.8 -0.9,-2.4c-0.4,-0.6 -0.8,-1.1 -1.1,-1.4c-0.5,-0.4 -0.9,-0.7 -1.4,-0.9l0,7.3l-0.1,-0.1c-0.1,0 -0.2,-0.2 -0.5,-0.5c-0.2,-0.7 -0.5,-1.4 -0.8,-2c-0.3,-0.6 -0.7,-1.1 -1,-1.5c-0.3,-0.4 -0.8,-0.8 -1.2,-1.1c-0.4,-0.3 -0.8,-0.6 -1.2,-0.8c-0.5,-0.2 -1,-0.4 -1.4,-0.6c-0.5,-0.2 -1,-0.3 -1.5,-0.3l-0.6,-0.8c-0.2,-0.2 -0.3,-0.5 -0.5,-0.7c-0.2,-0.3 -0.4,-0.5 -0.5,-0.7c0.6,-0.5 1.3,-1 1.9,-1.4c0.6,-0.4 1.3,-0.8 1.9,-1.1c0.6,-0.3 1.2,-0.6 1.7,-0.9c0.5,-0.3 1,-0.5 1.4,-0.6c-0.3,-0.3 -0.6,-0.6 -1,-0.9c-0.4,-0.3 -0.7,-0.4 -1,-0.4c-0.1,0.2 -0.3,0.4 -0.6,0.6c-0.3,0.2 -0.6,0.4 -0.9,0.6c-0.3,0.2 -0.7,0.3 -1,0.5c-0.3,0.1 -0.6,0.2 -0.8,0.2l-1.1,0c-0.4,0 -0.7,-0.1 -1,-0.3c-0.3,-0.1 -0.5,-0.4 -0.7,-0.6c-0.2,-0.3 -0.3,-0.7 -0.3,-1.2c0,-0.5 0.1,-0.9 0.4,-1.2c0.3,-0.3 0.6,-0.5 1,-0.5c0.4,0 0.7,0 1,0.3c0.3,0.2 0.5,0.6 0.5,1.2c1.3,-0.1 2.3,-0.8 3.1,-2.1c0.4,0.2 0.7,0.4 1.1,0.8c0.4,0.3 0.7,0.7 1,1c0.3,0.3 0.6,0.7 0.8,0.9c0.2,0.3 0.4,0.5 0.5,0.6l0,-5.2l1.5,1.5l0,8c0.5,0.3 0.8,0.6 1.2,0.9c0.3,0.3 0.6,0.5 0.7,0.8c0.1,0.1 0.2,0.3 0.3,0.4c0.1,0.1 0.1,0.2 0.2,0.4l0.1,-11.7Zm-3.9,10.7l0,-3.3c-0.1,0 -0.3,0.1 -0.5,0.1c-0.2,0.1 -0.4,0.1 -0.6,0.2c-0.4,0.2 -0.8,0.5 -1.4,0.8c-0.6,0.4 -1.3,0.9 -2.1,1.6c0.7,0.3 1.3,0.6 1.8,1c0.5,0.3 0.9,0.7 1.2,1c0.3,0.3 0.6,0.7 0.8,1c0.2,0.3 0.4,0.6 0.7,0.9l0,-3.3l0.1,0Z" style="fill:#f00;fill-rule:nonzero;"/></g></g><g><g><path d="M238.2,267.7l0,-0.5c0,-0.2 0.1,-0.3 0.4,-0.4c0.1,0 0.2,0 0.3,0.1c0.1,0.1 0.2,0.2 0.2,0.3c0,0.1 0.1,0.2 0.1,0.4c0,0.1 0.1,0.3 0.1,0.4c0,0.1 0.1,0.4 0.2,0.8c0.1,0.4 0.3,0.9 0.6,1.3c0.3,0.5 0.7,0.9 1.2,1.2c0.5,0.4 1.2,0.5 2,0.5c0.3,0 0.6,-0.1 1,-0.2c0.4,-0.1 0.8,-0.3 1.2,-0.7c0.5,-0.4 1,-0.9 1.5,-1.6c0.6,-0.7 1.2,-1.7 1.9,-3c0.7,-1.5 1.5,-2.6 2.3,-3.2c0.8,-0.6 1.5,-1 2.1,-1c0.6,0 1.1,0.3 1.4,0.9c0.3,0.6 0.3,1.3 -0.1,2.3l-0.6,0c0,-0.2 0.1,-0.4 0.1,-0.5l0,-0.5c0,-0.3 -0.1,-0.5 -0.2,-0.7c-0.1,-0.2 -0.4,-0.3 -0.7,-0.3c-0.7,0 -1.4,0.5 -2,1.3c-0.6,0.8 -1.2,1.9 -1.8,3.4c-0.2,0.4 -0.4,0.9 -0.7,1.5c-0.3,0.7 -0.7,1.3 -1.2,2c-0.5,0.6 -1.1,1.2 -1.7,1.7c-0.6,0.5 -1.4,0.8 -2.2,0.8c-0.8,0.1 -1.6,-0.1 -2.2,-0.5c-0.7,-0.4 -1.2,-0.9 -1.7,-1.6c-0.5,-0.6 -0.8,-1.3 -1.1,-2c-0.3,-0.7 -0.4,-1.6 -0.4,-2.2Zm3.9,0.3c0,-0.4 0.1,-0.8 0.4,-1.1c0.3,-0.3 0.6,-0.4 1.1,-0.4c0.4,0 0.8,0.1 1.1,0.4c0.3,0.3 0.4,0.6 0.4,1.1c0,0.4 -0.1,0.8 -0.4,1.1c-0.3,0.3 -0.6,0.4 -1.1,0.4c-0.4,0 -0.8,-0.1 -1.1,-0.4c-0.3,-0.3 -0.4,-0.6 -0.4,-1.1Z" style="fill:#f00;fill-rule:nonzero;"/></g></g><g><g><path d="M322.8,274.8c0,-0.5 0.2,-1 0.5,-1.3c0.4,-0.4 0.8,-0.5 1.3,-0.5c0.2,0 0.4,0 0.6,0.1c0.2,0.1 0.3,0.1 0.5,0.2c0.1,0 0.2,-0.1 0.4,-0.1c0.2,-0.1 0.3,-0.2 0.5,-0.4c0.1,-0.2 0.2,-0.4 0.3,-0.7c0.1,-0.3 0.1,-0.7 -0.1,-1.1c-0.2,-0.4 -0.4,-0.6 -0.6,-0.8c-0.2,-0.2 -0.6,-0.3 -1,-0.4c-0.4,-0.1 -1,0 -1.7,0.2c0,0 -0.1,0 -0.3,0.1c-0.2,0.1 -0.4,0.2 -0.7,0.3c-0.3,0.2 -0.6,0.4 -0.9,0.6c-0.3,0.3 -0.6,0.6 -0.9,1c0.2,0.1 0.4,0.3 0.6,0.5c0.2,0.2 0.3,0.4 0.4,0.6c0.1,0.2 0.1,0.4 0.1,0.7c0,0.2 -0.1,0.5 -0.2,0.7c-0.2,0.4 -0.5,0.6 -0.9,0.7c-0.4,0.1 -0.8,0.1 -1.1,0c-0.4,-0.1 -0.7,-0.4 -1,-0.7c-0.3,-0.3 -0.4,-0.7 -0.4,-1.2l0,-1c0,-0.3 0.2,-0.7 0.4,-1c0.2,-0.3 0.5,-0.7 0.9,-1c0.4,-0.4 0.9,-0.7 1.6,-1.1c0.6,-0.3 1.2,-0.5 1.8,-0.7c0.6,-0.2 1.3,-0.2 1.9,-0.1c0.6,0.1 1.2,0.3 1.8,0.6c0.6,0.3 1,0.9 1.3,1.6c0.1,0.2 0.2,0.5 0.2,0.9c0.1,0.3 0.1,0.7 0,1.2c0,0.4 -0.1,0.9 -0.3,1.3c-0.2,0.5 -0.4,1 -0.8,1.5c0.1,0.2 0.3,0.4 0.6,0.7c0.2,0.3 0.4,0.7 0.6,1.1c0.1,0.4 0.2,1 0.2,1.6c0,0.6 -0.3,1.3 -0.7,2.1c-0.2,0.3 -0.4,0.5 -0.6,0.7c-0.2,0.2 -0.5,0.4 -0.8,0.6c-0.3,0.2 -0.6,0.3 -1,0.4c-0.4,0.1 -0.8,0.2 -1.4,0.2c-0.3,0 -0.7,0 -1.2,-0.1c-0.5,-0.1 -0.9,-0.3 -1.5,-0.5c-0.5,-0.3 -1.1,-0.7 -1.7,-1.3c-0.6,-0.6 -1.2,-1.3 -1.8,-2.3c-0.6,-1 -1.2,-2.2 -1.8,-3.6c-0.6,-1.4 -1.2,-3.2 -1.8,-5.2c0,0 0.1,0 0.2,0.1c0.1,0.1 0.2,0.1 0.4,0.2c0.1,0.1 0.2,0.1 0.3,0.2c0.1,0 0.2,0.1 0.3,0.1c0.2,0.9 0.5,1.8 0.8,2.6c0.3,0.8 0.7,1.6 1.1,2.3c0.3,0.6 0.7,1.2 1.2,1.8c0.5,0.6 0.9,1.1 1.5,1.6c0.5,0.5 1.2,0.9 1.8,1.2c0.7,0.3 1.4,0.5 2.2,0.6c0.5,0 0.9,0 1.2,-0.1c0.3,-0.1 0.7,-0.3 1,-0.5c0.3,-0.2 0.6,-0.6 0.9,-1.1c0.2,-0.3 0.2,-0.6 0.2,-0.9c0,-0.3 0,-0.5 -0.1,-0.7c-0.1,-0.2 -0.2,-0.4 -0.3,-0.6c-0.1,-0.2 -0.3,-0.3 -0.4,-0.4c-0.4,0.4 -0.8,0.7 -1.4,0.7c-0.5,0 -0.9,-0.2 -1.3,-0.6c-0.7,-0.7 -0.9,-1.1 -0.9,-1.6Z" style="fill:#f00;fill-rule:nonzero;"/></g></g><g><g><path d="M399.5,274.4l0,-0.4c0,-0.2 0.1,-0.4 0.1,-0.7c0.1,-0.4 0.3,-0.8 0.5,-1.4c0.2,-0.6 0.6,-1.2 1.1,-1.8c0.5,-0.6 1.1,-1.2 1.8,-1.6c0.7,-0.5 1.6,-0.8 2.7,-0.9c0.2,0 0.4,0 0.5,0.1c0.2,0 0.3,0.1 0.5,0.2c0.2,0.1 0.4,0.2 0.6,0.4c0.2,0.2 0.4,0.4 0.5,0.5c0.1,0.1 0.3,0.3 0.3,0.4c0.1,0.2 0.1,0.3 0.2,0.5l0,14.8l-0.8,-0.7c-0.1,-0.1 -0.2,-0.3 -0.3,-0.5c-0.1,-0.2 -0.1,-0.5 -0.2,-0.8c-0.1,-0.3 -0.2,-0.5 -0.3,-0.8c-0.1,-0.3 -0.3,-0.4 -0.5,-0.6c-0.2,-0.1 -0.4,-0.2 -0.6,-0.2c-0.2,-0.1 -0.4,-0.1 -0.7,-0.2c-0.3,0 -0.6,-0.1 -1,-0.1c-0.4,0 -0.9,0.1 -1.5,0.1c-0.6,0.1 -1.2,0.2 -1.8,0.3c-0.6,0.1 -1.3,0.1 -1.9,0c-0.6,-0.1 -1.3,-0.3 -1.8,-0.7c-0.6,-0.4 -1.1,-0.9 -1.5,-1.7c-0.3,-0.6 -0.5,-1.2 -0.6,-1.8c-0.1,-0.6 -0.1,-1.2 -0.1,-1.8c0.1,-0.6 0.2,-1.2 0.4,-1.7c0.2,-0.5 0.5,-1.1 0.9,-1.5l0.6,0.6c-0.1,0.2 -0.3,0.4 -0.4,0.8c-0.2,0.4 -0.3,0.8 -0.3,1.3c-0.1,0.5 -0.1,1 0,1.5c0.1,0.5 0.2,1 0.5,1.4c0.3,0.4 0.7,0.8 1.3,1c0.6,0.2 1.3,0.4 2.3,0.4c0.2,0 0.6,-0.1 1.2,-0.2c0.6,-0.1 1.2,-0.1 1.9,-0.1c0.7,0 1.4,0.2 2.1,0.4c0.7,0.2 1.3,0.7 1.7,1.3l0,-10.1c0,-0.2 0,-0.4 -0.1,-0.8c-0.1,-0.2 -0.2,-0.3 -0.4,-0.4c-0.2,-0.1 -0.4,-0.1 -0.8,0.1c-0.3,0.2 -0.7,0.3 -1.1,0.6c-0.4,0.2 -0.8,0.5 -1.1,0.8c-0.3,0.3 -0.7,0.7 -0.9,1.1c-0.2,0.4 -0.5,0.9 -0.6,1.5c0.5,-0.1 0.8,-0.1 1.1,0c0.3,0.1 0.5,0.2 0.6,0.4c0.1,0.2 0.2,0.4 0.3,0.6c0,0.2 0.1,0.5 0.1,0.7c0,0.5 -0.2,0.9 -0.5,1.3c-0.4,0.4 -0.9,0.5 -1.6,0.5c-0.3,0 -0.7,-0.1 -0.9,-0.2c-0.2,-0.1 -0.6,-0.3 -0.8,-0.5c-0.2,-0.2 -0.4,-0.5 -0.5,-0.7c-0.1,-0.1 -0.2,-0.3 -0.2,-0.7Z" style="fill:#f00;fill-rule:nonzero;"/></g></g><g><g><path d="M594.2,187.3l19.4,0c0.5,0.1 1,0.3 1.4,0.7c0.4,0.4 0.8,1.1 1.2,1.9l0.4,1.3l-0.5,-3.4c0,-0.7 -0.1,-1.2 -0.1,-1.6c0,-0.4 0,-0.7 -0.1,-0.9l0,-0.6l0.6,0.5l0.2,1.3l0.3,0.5l0.4,0.4l1.8,0l1.5,1.5l-3.3,0l0,15.8l-1.4,-1.7l0,-11.8c-0.1,-0.5 -0.3,-1 -0.7,-1.5c-0.4,-0.5 -0.9,-0.8 -1.5,-0.9l-2.1,0l0,15.4l-0.6,-0.8l-0.8,-2.5c-0.4,-0.7 -0.8,-1.2 -1,-1.6c-0.3,-0.4 -0.5,-0.7 -0.6,-0.9c-0.1,-0.2 -0.3,-0.4 -0.4,-0.5c-0.1,-0.1 -0.2,-0.2 -0.3,-0.3c-0.2,0.3 -0.4,0.6 -0.7,0.9c-0.3,0.3 -0.6,0.5 -0.9,0.7c-0.3,0.2 -0.7,0.4 -1.1,0.5c-0.4,0.1 -0.7,0.2 -1.1,0.2c-0.9,0 -1.6,-0.2 -2.3,-0.5c-0.7,-0.3 -1.3,-0.8 -1.8,-1.3c-0.5,-0.5 -1,-1.2 -1.4,-1.9c-0.4,-0.7 -0.8,-1.4 -1.1,-2.2c-0.3,-0.8 -0.6,-1.5 -0.8,-2.3c-0.2,-0.8 -0.5,-1.5 -0.7,-2.3l0.9,0.4c0.4,1.3 0.9,2.4 1.4,3.3c0.5,0.9 1,1.7 1.6,2.3c0.6,0.6 1.2,1.1 1.9,1.4c0.7,0.3 1.5,0.5 2.3,0.5c0.8,0 1.5,-0.2 1.9,-0.7c0.4,-0.5 0.6,-1 0.6,-1.8c0,-0.4 0,-0.7 -0.1,-1.1c-0.1,-0.3 -0.2,-0.7 -0.3,-0.9c-0.1,-0.2 -0.3,-0.5 -0.5,-0.6c-0.2,-0.1 -0.4,-0.2 -0.6,-0.2c-0.1,0 -0.1,0 -0.1,0.1c0,0.1 -0.1,0.2 -0.2,0.4c-0.3,0.5 -0.6,0.8 -1,0.9c-0.4,0.2 -0.9,0.2 -1.3,0.1c-0.4,-0.1 -0.8,-0.3 -1.2,-0.6c-0.3,-0.3 -0.5,-0.7 -0.5,-1.3c-0.1,-0.6 0.1,-1.1 0.5,-1.5c0.4,-0.4 0.9,-0.6 1.6,-0.7c1.3,0 2.4,0.3 3.2,1.1c0.5,0.5 0.9,0.9 1.1,1.3c0.2,0.4 0.5,0.9 0.7,1.3c0.2,0.4 0.3,0.8 0.3,1.2c0,0.4 0.1,0.8 0.1,1.1l1.7,3l0,-9.9l-14.5,0l-1.4,-1.2Z" style="fill:#f00;fill-rule:nonzero;"/></g></g><g><path d="M290.8,186.7c0.2,-0.1 0.4,-0.1 0.5,-0.3c0.2,-0.1 0.2,-0.3 0.2,-0.5c0,-0.1 0,-0.2 -0.1,-0.4c-0.1,-0.2 -0.3,-0.3 -0.6,-0.5c-0.3,-0.1 -0.8,-0.3 -1.4,-0.3c-0.6,-0.1 -1.5,-0.1 -2.5,0c-0.5,0.1 -1,0.1 -1.6,0.1c-0.6,0 -1.2,-0.1 -1.8,-0.2c-0.6,-0.2 -1.1,-0.4 -1.6,-0.7c-0.5,-0.3 -0.9,-0.8 -1.1,-1.4c-0.2,-0.4 -0.2,-0.8 -0.2,-1.2c0,-0.3 0.1,-0.6 0.2,-0.9c0.1,-0.3 0.2,-0.4 0.3,-0.5c0.1,-0.1 0.2,-0.2 0.2,-0.2l0.1,0.1c0.1,0 0.2,0.1 0.3,0.1l0.4,0.2c-0.2,0.2 -0.3,0.3 -0.4,0.5c-0.1,0.2 -0.1,0.4 -0.2,0.6c0,0.2 0.1,0.5 0.2,0.7c0.2,0.3 0.6,0.6 1,0.7c0.5,0.1 1.2,0.2 2.1,0.1c0.5,-0.1 1,-0.1 1.7,-0.2c0.7,-0.1 1.4,-0.1 2.1,0c0.7,0 1.4,0.2 2,0.4c0.6,0.2 1.1,0.5 1.5,1c0.4,0.5 0.6,1 0.7,1.4c0.1,0.4 0.1,0.9 0.1,1.3l2.4,0l1.5,1.5l-9.3,0l0,5.8c0.2,0 0.5,-0.1 0.8,-0.2c0.3,-0.1 0.7,-0.3 1.1,-0.7c0.3,-0.2 0.5,-0.5 0.7,-0.7c0.2,-0.3 0.4,-0.5 0.6,-0.7c0.2,-0.2 0.3,-0.4 0.5,-0.6c0.1,-0.2 0.2,-0.2 0.3,-0.2c0.4,0 0.8,0.2 1.2,0.6c0.4,0.4 0.8,1.1 1.3,2.1c0.1,0.2 0.2,0.6 0.3,1.1c0.1,0.5 0.2,1 0.2,1.6c0,0.6 -0.1,1.2 -0.3,1.8c-0.2,0.6 -0.5,1.2 -0.9,1.7c-0.4,0.5 -1,0.9 -1.7,1.3c-0.7,0.3 -1.6,0.5 -2.7,0.5c-0.4,0 -0.7,0 -1,-0.1c-0.3,0 -0.7,-0.1 -1,-0.2c-0.3,-0.1 -0.6,-0.2 -0.9,-0.4c-0.3,-0.2 -0.6,-0.4 -0.9,-0.7c-1,-1.1 -1.9,-2.6 -2.6,-4.4c-0.7,-1.8 -1.2,-4 -1.3,-6.6l0.5,0.3c0.1,0.1 0.2,0.1 0.3,0.2c0.1,0 0.1,0.1 0.2,0.1c0.2,1.6 0.5,3.1 1.1,4.5c0.2,0.6 0.5,1.1 0.8,1.7c0.3,0.6 0.7,1.1 1.2,1.5c0.4,0.5 1,0.8 1.6,1.2c0.6,0.3 1.3,0.5 2,0.6c0.8,0.1 1.4,0 2,-0.3c0.6,-0.3 1,-0.6 1.4,-0.9c0.4,-0.4 0.7,-0.9 0.8,-1.3c0.1,-0.4 0.2,-0.9 0.2,-1.3c0,-0.4 -0.1,-0.8 -0.3,-1.1c-0.2,-0.3 -0.3,-0.5 -0.5,-0.7c-0.2,0.4 -0.5,0.7 -0.7,0.9c-0.2,0.3 -0.5,0.5 -0.8,0.8c-0.3,0.3 -0.6,0.5 -1,0.7c-0.4,0.2 -0.7,0.4 -1.2,0.4c-0.4,0.1 -0.8,0.1 -1.2,-0.1c-0.2,-0.1 -0.4,-0.2 -0.5,-0.3c-0.1,-0.1 -0.3,-0.3 -0.4,-0.5c-0.1,-0.2 -0.2,-0.5 -0.3,-0.9c-0.1,-0.3 -0.1,-0.5 -0.1,-0.8l0,-5.5l-6.3,0l-1.4,-1.5l12.2,0l0,-0.1Z" style="fill:#f00;fill-rule:nonzero;"/></g><g><path d="M360.6,186.6l11.2,0c0.2,-0.1 0.4,-0.2 0.6,-0.4c0.2,-0.2 0.2,-0.3 0.2,-0.6c0,-0.2 -0.1,-0.4 -0.2,-0.5c-0.1,-0.1 -0.3,-0.2 -0.6,-0.3c-0.2,-0.1 -0.5,-0.1 -0.8,-0.1l-1.3,0c-0.3,0 -0.7,0 -1.2,0.1l-1.7,0c-0.6,0 -1.2,-0.1 -1.8,-0.2c-0.6,-0.1 -1.1,-0.2 -1.6,-0.4c-0.5,-0.2 -0.8,-0.4 -1.1,-0.7c-0.6,-0.6 -1,-1.2 -1.1,-1.7c-0.1,-0.5 -0.1,-0.9 0,-1.2c0.1,-0.4 0.4,-0.7 0.7,-0.9l1,0.1c-0.3,0.2 -0.5,0.4 -0.6,0.6c-0.1,0.2 -0.2,0.4 -0.3,0.6c-0.1,0.2 0,0.5 0.2,0.7c0.2,0.3 0.4,0.4 0.8,0.5c0.4,0.1 0.8,0.2 1.2,0.2l1.5,0c0.5,0 1,-0.1 1.5,-0.1c0.5,0 0.9,-0.1 1.3,-0.1l0.8,0c0.6,0 1.3,0.2 1.9,0.5c0.6,0.3 1.2,0.8 1.7,1.6c0.3,0.5 0.5,0.9 0.5,1.3l0,0.9l2.1,0l1.5,1.5l-8.7,0c0.1,0.3 0.2,0.6 0.4,0.7c0.2,0.1 0.3,0.3 0.5,0.4c0.2,0.1 0.3,0.2 0.5,0.2c0.2,0 0.3,0.1 0.3,0.1c0.1,0 0.3,0.1 0.6,0.2c0.3,0.1 0.6,0.3 1,0.6c0.4,0.3 0.7,0.7 1,1.2c0.3,0.5 0.5,1.2 0.6,2c0.1,0.8 0,1.5 -0.3,2.1c-0.3,0.6 -0.7,1.1 -1.2,1.5c-0.5,0.4 -1,0.7 -1.5,0.9c-0.5,0.2 -0.9,0.4 -1.2,0.5c0.3,0.2 0.7,0.4 1.1,0.6c0.4,0.2 0.7,0.5 1.1,0.8c0.4,0.3 0.7,0.5 1.1,0.8c0.4,0.3 0.7,0.6 1,0.8c0.4,0.3 0.7,0.6 1.1,1c0.4,0.3 0.7,0.7 1,1l0.1,0.6c0.1,0.2 0.1,0.4 0.2,0.6c0.1,0.2 0.1,0.5 0.2,0.8c-1.5,-1.5 -2.9,-2.7 -4.3,-3.5c-1.4,-0.9 -2.6,-1.5 -3.7,-2c-0.6,-0.3 -1.2,-0.5 -1.8,-0.7c-0.6,-0.2 -1.2,-0.3 -1.7,-0.4c-0.1,-0.1 -0.1,-0.2 -0.2,-0.4c-0.1,-0.1 -0.1,-0.3 -0.2,-0.5c-0.1,-0.3 -0.3,-0.7 -0.6,-1.2c-0.2,-0.5 -0.5,-1 -0.8,-1.7c0.1,0.1 0.3,0.2 0.6,0.4c0.3,0.1 0.7,0.3 1.1,0.4c0.4,0.1 0.9,0.2 1.4,0.3c0.5,0.1 1,0.1 1.4,0.1c1,-0.1 1.8,-0.3 2.4,-0.6c0.6,-0.3 1,-0.6 1.3,-0.9c0.3,-0.3 0.5,-0.7 0.6,-1.2c-0.1,-0.7 -0.3,-1.2 -0.5,-1.6c-0.3,-0.4 -0.6,-0.6 -0.9,-0.7c-0.3,-0.1 -0.6,-0.2 -0.9,-0.2c-0.3,0 -0.4,0.1 -0.5,0.2c-0.1,0.7 -0.3,1.2 -0.6,1.6c-0.3,0.4 -0.7,0.7 -1.1,0.9c-0.4,0.2 -0.8,0.3 -1.2,0.3c-0.4,0 -0.7,-0.1 -0.9,-0.3c-0.3,-0.2 -0.5,-0.4 -0.7,-0.7c-0.1,-0.2 -0.2,-0.5 -0.2,-0.7c0,-0.2 0.1,-0.5 0.2,-0.7c0.1,-0.2 0.2,-0.5 0.4,-0.7c0.4,-0.5 0.8,-0.9 1.2,-1.1c0.4,-0.2 0.9,-0.3 1.4,-0.5c0.2,0 0.3,-0.1 0.3,-0.2c0,-0.1 0,-0.2 -0.1,-0.4c-0.1,-0.1 -0.2,-0.3 -0.3,-0.4c-0.1,-0.1 -0.3,-0.3 -0.4,-0.4l-4.7,0l-1.3,-1.3Z" style="fill:#f00;fill-rule:nonzero;"/></g><g><path d="M446.2,193.9c0.9,-0.7 1.9,-1.4 2.8,-1.9c0.9,-0.5 1.8,-1 2.6,-1.4c0.8,-0.4 1.5,-0.7 2.1,-0.9c0.6,-0.2 1.1,-0.4 1.5,-0.5l0,-1.1l-9.9,0l-1.5,-1.5l14.5,0l1.5,1.5l-3.2,0l0,15.4l-0.8,-1c-0.3,-0.8 -0.7,-1.4 -1.1,-2c-0.4,-0.6 -0.8,-1.1 -1.2,-1.5c-0.4,-0.4 -0.9,-0.8 -1.3,-1.1c-0.4,-0.3 -0.8,-0.5 -1.2,-0.7c-1,-0.4 -1.9,-0.7 -2.9,-0.7l-0.4,-0.5l-1.5,-2.1Zm9.1,3.5l-4.6,-4c-0.2,0.2 -0.5,0.3 -0.7,0.5c-0.3,0.2 -0.5,0.4 -0.7,0.6c0.1,0.1 0.4,0.2 0.9,0.3c0.5,0.2 1,0.4 1.6,0.8c0.6,0.4 1.2,0.9 1.8,1.5c0.6,0.6 1.2,1.4 1.7,2.4l0,-2.1Zm0,-6.1c-0.3,0.1 -0.6,0.2 -1,0.3c-0.3,0.1 -0.7,0.2 -1.1,0.4c-0.4,0.2 -0.9,0.4 -1.3,0.7l3.4,3l0,-4.4Z" style="fill:#f00;fill-rule:nonzero;"/></g><g><g><path d="M213.6,215.6l1.5,1.2l0,1.7l1.6,0l1.5,1.5l-3.2,0l0,12.1c0,0 -0.5,-0.5 -0.6,-0.6c-0.2,-1 -0.5,-1.8 -0.9,-2.4c-0.4,-0.6 -0.8,-1.1 -1.1,-1.4c-0.5,-0.4 -0.9,-0.7 -1.4,-0.9l0,7.3l-0.1,-0.1c-0.1,0 -0.2,-0.2 -0.5,-0.5c-0.2,-0.7 -0.5,-1.4 -0.8,-2c-0.3,-0.6 -0.7,-1.1 -1,-1.5c-0.3,-0.4 -0.8,-0.8 -1.2,-1.1c-0.4,-0.3 -0.8,-0.6 -1.2,-0.8c-0.5,-0.2 -1,-0.4 -1.4,-0.6c-0.5,-0.2 -1,-0.3 -1.5,-0.3l-0.6,-0.8c-0.2,-0.2 -0.3,-0.5 -0.5,-0.7c-0.2,-0.3 -0.4,-0.5 -0.5,-0.7c0.6,-0.5 1.3,-1 1.9,-1.4c0.6,-0.4 1.3,-0.8 1.9,-1.1c0.6,-0.3 1.2,-0.6 1.7,-0.9c0.5,-0.3 1,-0.5 1.4,-0.6c-0.3,-0.3 -0.6,-0.6 -1,-0.9c-0.4,-0.3 -0.7,-0.4 -1,-0.4c-0.1,0.2 -0.3,0.4 -0.6,0.6c-0.3,0.2 -0.6,0.4 -0.9,0.6c-0.3,0.2 -0.7,0.3 -1,0.5c-0.3,0.1 -0.6,0.2 -0.8,0.2l-1.1,0c-0.4,0 -0.7,-0.1 -1,-0.3c-0.3,-0.1 -0.5,-0.4 -0.7,-0.6c-0.2,-0.3 -0.3,-0.7 -0.3,-1.2c0,-0.5 0.1,-0.9 0.4,-1.2c0.3,-0.3 0.6,-0.5 1,-0.5c0.4,0 0.7,0 1,0.3c0.3,0.2 0.5,0.6 0.5,1.2c1.3,-0.1 2.3,-0.8 3.1,-2.1c0.4,0.2 0.7,0.4 1.1,0.8c0.4,0.3 0.7,0.7 1,1c0.3,0.3 0.6,0.7 0.8,0.9c0.2,0.3 0.4,0.5 0.5,0.6l0,-5.2l1.5,1.5l0,8c0.5,0.3 0.8,0.6 1.2,0.9c0.3,0.3 0.6,0.5 0.7,0.8c0.1,0.1 0.2,0.3 0.3,0.4c0.1,0.1 0.1,0.2 0.2,0.4l0.1,-11.7Zm-4.1,17.4c0,-0.1 0,-0.1 0.1,-0.2c0.1,-0.1 0.1,-0.2 0.1,-0.3l0.3,-0.8l1.2,2.4l-3.4,2.4l3.7,2.7c0.1,0.1 0.2,0.1 0.3,0.2c0.1,0.1 0.2,0.2 0.3,0.3c0.2,0.2 0.3,0.4 0.4,0.7c0.1,0.3 0.2,0.7 0.3,1.1c-0.2,-0.2 -0.3,-0.3 -0.5,-0.5c-0.2,-0.2 -0.4,-0.3 -0.6,-0.5c-0.2,-0.2 -0.5,-0.4 -0.8,-0.6c-0.3,-0.2 -0.8,-0.5 -1.3,-0.8c-0.5,-0.3 -1.1,-0.7 -1.9,-1.1c-0.8,-0.4 -1.7,-0.9 -2.7,-1.5c0.4,-0.3 0.9,-0.6 1.4,-1c0.5,-0.4 1,-0.7 1.5,-1c0.5,-0.3 0.8,-0.6 1.1,-0.8c0.3,-0.2 0.5,-0.3 0.5,-0.4l0,-0.3Zm0.2,-6.7l0,-3.3c-0.1,0 -0.3,0.1 -0.5,0.1c-0.2,0.1 -0.4,0.1 -0.6,0.2c-0.4,0.2 -0.8,0.5 -1.4,0.8c-0.6,0.4 -1.3,0.9 -2.1,1.6c0.7,0.3 1.3,0.6 1.8,1c0.5,0.3 0.9,0.7 1.2,1c0.3,0.3 0.6,0.7 0.8,1c0.2,0.3 0.4,0.6 0.7,0.9l0,-3.3l0.1,0Z" style="fill:#a00;fill-rule:nonzero;"/></g></g><g><g><path d="M280.2,218.4l13.7,0c0.1,-0.1 0.2,-0.1 0.3,-0.2c0.1,-0.1 0.1,-0.2 0.1,-0.4c0,-0.3 -0.1,-0.5 -0.3,-0.7c-0.2,-0.2 -0.5,-0.3 -0.9,-0.4c-0.4,-0.1 -1,-0.1 -1.9,-0.1c-0.4,0 -0.8,0.1 -1.4,0.2c-0.6,0.1 -1.2,0.1 -1.9,0.2l-2.1,0c-0.7,0 -1.4,-0.1 -2,-0.3c-0.6,-0.2 -1.2,-0.4 -1.7,-0.7c-0.5,-0.3 -0.8,-0.7 -1,-1.3c-0.2,-0.5 -0.3,-0.9 -0.3,-1.2c0,-0.3 0.1,-0.6 0.2,-0.9c0.1,-0.3 0.3,-0.5 0.5,-0.7l0.8,1c-0.2,0.3 -0.4,0.6 -0.4,0.8c0,0.2 0,0.4 0.2,0.7c0.2,0.2 0.6,0.4 1.1,0.5c1.1,0.2 2.2,0.3 3.1,0.2c1,-0.1 1.9,-0.2 2.6,-0.3c0.3,0 0.6,0 1,-0.1l1.2,0c0.4,0 0.9,0.1 1.3,0.2c0.5,0.1 0.9,0.3 1.3,0.6c0.4,0.3 0.8,0.7 1.1,1.1c0.3,0.5 0.5,1.1 0.7,1.9l2.9,0l1.5,1.5l-9,0l0,5.2c0,0.2 0,0.4 0.1,0.5c0,0.2 0.1,0.3 0.2,0.3c0.4,-0.1 0.8,-0.2 1.1,-0.4c0.3,-0.2 0.6,-0.5 0.9,-0.8c0.3,-0.3 0.5,-0.6 0.8,-1c0.3,-0.4 0.5,-0.7 0.8,-1c0,-0.1 0.1,-0.1 0.3,0c0.2,0.1 0.4,0.2 0.6,0.5c0.2,0.2 0.5,0.6 0.7,0.9c0.3,0.4 0.5,0.8 0.7,1.3c0.1,0.2 0.2,0.6 0.3,1.1c0.1,0.5 0.1,1 0,1.6c-0.1,0.6 -0.2,1.2 -0.5,1.8c-0.2,0.6 -0.6,1.2 -1,1.7c-0.5,0.5 -1,1 -1.8,1.3c-0.7,0.3 -1.6,0.5 -2.7,0.5c-0.4,0 -0.8,0 -1.3,-0.1c-0.4,-0.1 -0.9,-0.3 -1.3,-0.5c-0.4,-0.2 -0.8,-0.4 -1.2,-0.7c-0.4,-0.3 -0.7,-0.6 -1,-0.9c-0.5,-0.5 -1,-1.1 -1.4,-1.7c-0.4,-0.6 -0.8,-1.4 -1.2,-2.2c-0.4,-0.8 -0.6,-1.7 -0.9,-2.7c-0.3,-1 -0.4,-2.2 -0.5,-3.4l0.8,0.6c0.1,0.4 0.2,0.9 0.3,1.7c0.2,0.8 0.4,1.6 0.8,2.4c0.3,0.9 0.8,1.7 1.3,2.6c0.5,0.8 1.2,1.5 2.1,2.1c-0.1,-0.1 -0.3,-0.4 -0.6,-0.8c-0.3,-0.4 -0.6,-1 -0.9,-1.7c-0.3,-0.8 -0.6,-1.7 -0.9,-2.8c-0.3,-1.1 -0.5,-2.5 -0.6,-4.1l0.8,0.6c0.1,0.8 0.2,1.5 0.3,2.1c0.1,0.6 0.3,1.3 0.5,2c0.2,0.7 0.5,1.4 0.9,2.1c0.4,0.7 0.9,1.2 1.4,1.7c0.6,0.5 1.2,0.8 2,1c0.4,0.1 0.8,0.1 1.1,0c0.4,0 0.8,-0.1 1.1,-0.3c0.3,-0.1 0.6,-0.3 0.9,-0.4c0.3,-0.2 0.5,-0.3 0.7,-0.5c0.5,-0.4 0.8,-0.9 1,-1.4c0.2,-0.5 0.3,-0.9 0.3,-1.4c0,-0.4 -0.1,-0.8 -0.2,-1.1c-0.1,-0.3 -0.3,-0.6 -0.5,-0.7c-0.4,0.7 -0.9,1.3 -1.4,1.7c-0.4,0.4 -1,0.7 -1.5,1c-0.6,0.2 -1.2,0.2 -1.9,0c0,0 -0.1,-0.1 -0.2,-0.1c-0.1,-0.1 -0.3,-0.2 -0.4,-0.5c-0.1,-0.3 -0.3,-0.6 -0.4,-1c-0.1,-0.4 -0.2,-1 -0.2,-1.7l0,-4.6l-7.8,0l-1.2,-1.4Z" style="fill:#a00;fill-rule:nonzero;"/></g></g><g><g><path d="M323.7,308c0,-0.4 0.1,-0.7 0.3,-1c0.2,-0.3 0.4,-0.5 0.7,-0.7c0.3,-0.2 0.6,-0.2 0.9,-0.2c0.3,0 0.7,0.1 1,0.3c0.1,0 0.2,-0.1 0.4,-0.2c0.2,-0.1 0.3,-0.2 0.5,-0.4c0.1,-0.2 0.2,-0.4 0.3,-0.7c0.1,-0.3 0.1,-0.7 0,-1.1c0,0 0,-0.1 -0.1,-0.3c-0.1,-0.2 -0.3,-0.3 -0.5,-0.5c-0.2,-0.2 -0.6,-0.3 -1,-0.3c-0.4,-0.1 -1,0 -1.7,0.2c0,0 -0.1,0 -0.3,0.1c-0.2,0.1 -0.4,0.2 -0.7,0.3c-0.3,0.2 -0.6,0.4 -0.9,0.6c-0.3,0.3 -0.6,0.6 -0.9,1c0.3,0.1 0.5,0.3 0.6,0.5c0.2,0.2 0.3,0.4 0.4,0.6c0.1,0.2 0.1,0.4 0.1,0.7c0,0.2 -0.1,0.5 -0.2,0.7c-0.2,0.4 -0.5,0.6 -0.9,0.7c-0.4,0.1 -0.8,0.1 -1.1,0c-0.4,-0.1 -0.7,-0.4 -1,-0.7c-0.3,-0.3 -0.4,-0.7 -0.4,-1.2l0,-0.9c0,-0.3 0.2,-0.7 0.4,-1c0.2,-0.3 0.5,-0.7 0.9,-1c0.4,-0.4 0.9,-0.7 1.6,-1.1c0.6,-0.3 1.2,-0.5 1.8,-0.7c0.6,-0.2 1.3,-0.2 1.9,-0.1c0.6,0.1 1.2,0.3 1.8,0.6c0.6,0.3 1,0.9 1.3,1.6c0.1,0.3 0.1,0.7 0.1,1.1c0,0.5 -0.2,1.1 -0.6,1.8c0.2,-0.2 0.5,-0.4 0.7,-0.6c0.3,-0.3 0.5,-0.5 0.7,-0.9c0.2,-0.4 0.3,-0.7 0.4,-1.2c0.1,-0.4 0.1,-0.9 -0.1,-1.4c0,0 0,-0.1 -0.1,-0.3c-0.1,-0.2 -0.3,-0.4 -0.6,-0.7c-0.3,-0.3 -0.9,-0.6 -1.6,-0.9c-0.7,-0.3 -1.7,-0.5 -2.9,-0.7c-0.5,-0.2 -1.1,-0.3 -1.7,-0.5c-0.6,-0.2 -1.2,-0.5 -1.7,-0.8c-0.5,-0.3 -1,-0.8 -1.4,-1.3c-0.4,-0.5 -0.6,-1.1 -0.6,-1.8c0,-0.3 0,-0.6 0.2,-0.9c0.1,-0.3 0.3,-0.5 0.6,-0.8c0.3,-0.3 0.7,-0.6 1.3,-0.9c0.4,0.4 0.6,0.6 0.7,0.8l0.1,0.2c-0.3,0 -0.6,0.1 -0.8,0.2c-0.2,0.1 -0.3,0.3 -0.4,0.5c-0.1,0.2 -0.1,0.5 0,0.9c0.1,0.4 0.4,0.7 0.8,1c0.4,0.3 0.9,0.5 1.4,0.7c0.5,0.2 1,0.4 1.5,0.5c0.5,0.1 0.8,0.2 1,0.3c0.2,0.1 0.4,0.1 0.7,0.2c0.3,0.1 0.7,0.2 1.1,0.4c0.4,0.2 0.8,0.4 1.2,0.7c0.4,0.3 0.8,0.6 1.2,1c0.4,0.4 0.6,0.8 0.9,1.3c0.2,0.5 0.4,1.1 0.4,1.8c0,0.6 -0.1,1.2 -0.3,1.8c-0.2,0.6 -0.5,1.1 -0.8,1.5c-0.3,0.4 -0.7,0.8 -1,1.2c-0.4,0.3 -0.7,0.6 -1,0.8c0.2,0.3 0.4,0.6 0.6,1c0.2,0.4 0.4,0.8 0.5,1.3c0.1,0.5 0.1,1 0.1,1.5c-0.1,0.5 -0.3,1.1 -0.6,1.6c-0.4,0.4 -0.9,0.8 -1.5,1.2c-0.6,0.4 -1.5,0.5 -2.5,0.5c-0.3,0 -0.7,0 -1.2,-0.1c-0.5,-0.1 -0.9,-0.3 -1.5,-0.5c-0.5,-0.3 -1.1,-0.7 -1.7,-1.3c-0.6,-0.6 -1.2,-1.3 -1.8,-2.3c-0.6,-1 -1.2,-2.2 -1.8,-3.6c-0.6,-1.4 -1.2,-3.2 -1.8,-5.2c0.1,0 0.2,0.1 0.6,0.3l0.5,0.3c0.2,0.9 0.5,1.8 0.8,2.6c0.3,0.8 0.7,1.6 1.1,2.3c0.3,0.6 0.7,1.2 1.2,1.8c0.5,0.6 0.9,1.1 1.5,1.6c0.5,0.5 1.2,0.9 1.8,1.2c0.7,0.3 1.4,0.5 2.2,0.6c0.5,0 0.9,0 1.2,-0.1c0.3,-0.1 0.7,-0.2 1,-0.5c0.3,-0.2 0.6,-0.6 0.9,-1.1c0.2,-0.3 0.2,-0.6 0.3,-0.9c0,-0.3 0,-0.5 -0.1,-0.7c-0.1,-0.2 -0.2,-0.4 -0.3,-0.6c-0.1,-0.2 -0.3,-0.3 -0.4,-0.4c-0.3,0.3 -0.6,0.5 -1,0.6c-0.4,0.1 -0.7,0.1 -1.1,-0.1c-0.3,-0.1 -0.6,-0.3 -0.9,-0.6c-0.6,-0.4 -0.7,-0.8 -0.7,-1.2Z" style="fill:#a00;fill-rule:nonzero;"/></g></g><g><g><path d="M398.5,296.1l0.4,0.4c-0.1,0.1 -0.3,0.2 -0.6,0.3c-0.3,0.2 -0.5,0.4 -0.7,0.6c-0.2,0.2 -0.3,0.5 -0.2,0.8c0.1,0.3 0.3,0.5 0.8,0.8c0.3,0.2 0.6,0.3 1,0.5c0.4,0.2 0.8,0.3 1.3,0.5c0.5,0.2 1,0.3 1.5,0.5c0.5,0.2 1,0.3 1.5,0.5c0.5,0.2 1,0.4 1.5,0.6c0.5,0.2 1,0.5 1.4,0.9c0.4,0.4 0.8,0.8 1,1.3c0.3,0.5 0.5,1.1 0.5,1.8c0,0.3 0,0.6 -0.1,0.9c0,0.3 -0.1,0.6 -0.2,0.8c-0.1,0.3 -0.3,0.6 -0.5,0.9c-0.2,0.3 -0.6,0.6 -1,1c-0.1,0.1 -0.2,0.2 -0.3,0.3c-0.1,0.1 -0.3,0.3 -0.5,0.6l0,11.1l-0.8,-0.7c0,-0.1 -0.1,-0.3 -0.1,-0.6c-0.1,-0.2 -0.1,-0.5 -0.2,-0.8c-0.1,-0.3 -0.2,-0.5 -0.4,-0.8c-0.2,-0.2 -0.4,-0.4 -0.6,-0.6c-0.2,-0.1 -0.3,-0.2 -0.5,-0.2c-0.2,0 -0.4,-0.1 -0.6,-0.1l-1,0c-0.4,0 -0.9,0.1 -1.5,0.2c-0.6,0.1 -1.2,0.1 -1.8,0.2c-0.6,0.1 -1.3,0 -1.9,-0.1c-0.6,-0.1 -1.2,-0.4 -1.8,-0.7c-0.6,-0.4 -1.1,-0.9 -1.6,-1.7c-0.6,-1.2 -0.8,-2.4 -0.6,-3.6c0.2,-1.2 0.6,-2.3 1.4,-3.2l0.6,0.6c-0.1,0.2 -0.3,0.5 -0.4,0.9c-0.1,0.4 -0.3,0.8 -0.4,1.3c-0.1,0.5 -0.1,1 -0.1,1.5c0.1,0.5 0.2,1 0.5,1.4c0.3,0.4 0.7,0.8 1.3,1c0.6,0.2 1.3,0.4 2.3,0.4c0.2,0 0.6,0 1.2,-0.1c0.6,-0.1 1.2,-0.1 1.9,0c0.7,0.1 1.4,0.2 2.1,0.4c0.7,0.2 1.2,0.6 1.6,1.2l0,-10.1c0,-0.3 0,-0.5 -0.1,-0.7c0,-0.1 -0.1,-0.1 -0.1,-0.2c-0.1,-0.1 -0.1,-0.1 -0.2,-0.2l-0.3,0c-0.1,0 -0.3,0.1 -0.4,0.1c-0.3,0.1 -0.7,0.3 -1.1,0.5c-0.4,0.2 -0.8,0.5 -1.1,0.8c-0.3,0.3 -0.7,0.7 -1,1.1c-0.3,0.4 -0.5,0.9 -0.6,1.5c0.5,-0.1 0.8,-0.1 1.1,0c0.3,0.1 0.5,0.2 0.6,0.4c0.2,0.2 0.2,0.4 0.3,0.6c0.1,0.2 0.1,0.5 0.1,0.7c0,0.5 -0.2,0.9 -0.6,1.3c-0.4,0.4 -0.9,0.5 -1.6,0.5c-0.3,0 -0.6,-0.1 -0.9,-0.2c-0.3,-0.1 -0.6,-0.3 -0.8,-0.5c-0.2,-0.2 -0.4,-0.5 -0.5,-0.7c-0.1,-0.3 -0.2,-0.5 -0.2,-0.8l0,-0.1c-0.1,-0.3 0,-0.7 0.1,-1.1c0.1,-0.4 0.2,-0.9 0.4,-1.4c0.2,-0.5 0.5,-1 0.8,-1.5c0.3,-0.5 0.8,-0.9 1.2,-1.3c0.5,-0.4 1,-0.8 1.6,-1c0.6,-0.3 1.3,-0.5 2.1,-0.6l0.2,0c0.1,0 0.2,0 0.3,0.1c0.1,0 0.3,0.1 0.5,0.2c0.2,0.1 0.4,0.3 0.6,0.5c0.2,0.2 0.4,0.4 0.6,0.5c0.1,0.1 0.3,0.3 0.3,0.5c0,0.2 0.1,0.4 0.2,0.6c0,0.2 0.1,0.5 0.1,0.9c0.2,0.1 0.4,0 0.6,-0.1c0.3,-0.1 0.6,-0.3 0.8,-0.7c0.2,-0.4 0.2,-0.8 0.1,-1.2c-0.1,-0.2 -0.2,-0.4 -0.3,-0.7c-0.2,-0.2 -0.4,-0.5 -0.8,-0.7c-0.4,-0.2 -0.8,-0.5 -1.4,-0.8c-0.6,-0.3 -1.4,-0.5 -2.4,-0.8c-0.6,-0.2 -1.2,-0.3 -1.7,-0.5c-0.6,-0.2 -1.1,-0.4 -1.6,-0.6c-0.5,-0.2 -0.9,-0.5 -1.3,-0.9c-0.4,-0.4 -0.7,-0.8 -0.9,-1.4c-0.2,-0.5 -0.2,-0.9 -0.1,-1.3c0.1,-0.4 0.3,-0.8 0.6,-1.2c0.2,-0.3 0.5,-0.6 0.7,-0.8c0.2,-0.2 0.3,-0.3 0.3,-0.3l0.4,0.6Z" style="fill:#a00;fill-rule:nonzero;"/></g></g><g><g><path d="M366.8,223.3c0,-0.3 0.1,-0.6 0.3,-0.9c0.2,-0.3 0.3,-0.5 0.6,-0.6c0.2,-0.2 0.5,-0.3 0.7,-0.4c0.3,-0.1 0.5,-0.2 0.8,-0.2l-0.7,-1.2l-3.1,0l-1.5,-1.5l12.6,0c0.2,-0.1 0.4,-0.2 0.6,-0.4c0.2,-0.2 0.2,-0.3 0.2,-0.6c0,-0.2 -0.1,-0.4 -0.2,-0.5c-0.1,-0.1 -0.3,-0.2 -0.6,-0.3c-0.2,-0.1 -0.5,-0.1 -0.8,-0.1l-0.8,0c0,0 -0.2,0 -0.5,0.1c-0.3,0.1 -0.7,0.1 -1.2,0.1c-0.5,0 -1,0.1 -1.6,0.1c-0.6,0 -1.2,0 -1.8,-0.1c-0.6,-0.1 -1.1,-0.2 -1.6,-0.3c-0.5,-0.1 -0.9,-0.4 -1.1,-0.6c-0.6,-0.6 -0.9,-1.2 -1,-1.7c-0.1,-0.5 -0.1,-0.9 0.1,-1.2c0.2,-0.4 0.4,-0.7 0.8,-1l0.5,0.6c-0.1,0.1 -0.2,0.3 -0.3,0.4c-0.1,0.1 -0.1,0.3 -0.1,0.5c0,0.2 0,0.4 0.1,0.6c0.1,0.2 0.2,0.4 0.5,0.5c0.2,0.1 0.5,0.2 0.8,0.2c0.3,0 0.6,0.1 1,0c0.3,0 0.7,0 1,-0.1c0.3,0 0.7,-0.1 1.1,-0.1l1.2,0l1.3,-0.1c0.3,0 0.6,0 1,0.1c0.4,0 0.7,0.1 1.1,0.2c0.4,0.1 0.7,0.3 1,0.5c0.3,0.2 0.6,0.5 0.9,0.9c0.3,0.5 0.5,0.9 0.5,1.3c0,0.4 0.1,0.7 0,0.9l2.5,0l1.5,1.5l-11.8,0c-0.1,0.2 -0.2,0.5 -0.1,0.8c0.1,0.3 0.3,0.5 0.6,0.6c0.1,0 0.3,0.1 0.6,0.2c0.3,0.1 0.6,0.3 0.9,0.6c0.3,0.3 0.6,0.6 0.9,1.1c0.3,0.5 0.4,1.1 0.4,1.8c0.2,-0.3 0.4,-0.6 0.7,-0.9c0.3,-0.3 0.5,-0.6 0.9,-0.9c0.3,-0.3 0.7,-0.6 1.1,-0.9c0.4,-0.3 0.9,-0.5 1.5,-0.8l1.6,1.1c0.1,0.1 0.3,0.2 0.4,0.3c0.1,0.1 0.3,0.2 0.4,0.3c-1.1,1 -2,2.2 -2.7,3.5c-0.3,0.5 -0.5,1.1 -0.6,1.8c-0.2,0.6 -0.3,1.3 -0.3,2.1c0,0.7 0.1,1.5 0.3,2.3c0.2,0.8 0.6,1.7 1.1,2.5c-0.2,-0.1 -0.3,-0.2 -0.5,-0.2c-0.2,-0.1 -0.3,-0.1 -0.4,-0.2l-0.4,-0.1c-0.2,-0.5 -0.4,-1 -0.6,-1.6c-0.2,-0.5 -0.3,-1.1 -0.5,-1.7c-0.1,-0.5 -0.1,-1 -0.2,-1.6c0,-0.6 0,-1.2 0.1,-1.8c0.1,-0.6 0.2,-1.2 0.4,-1.9c0.2,-0.6 0.5,-1.3 0.8,-1.9c0,0 -0.5,0.5 -0.7,0.7c-0.2,0.2 -0.4,0.5 -0.6,0.7c-0.2,0.3 -0.4,0.5 -0.7,0.8c-0.2,0.3 -0.4,0.5 -0.6,0.7c-0.2,0.2 -0.3,0.4 -0.4,0.5c-0.1,0.1 -0.3,0.3 -0.6,0.6c-0.3,0.3 -0.6,0.7 -1,1c-0.4,0.4 -0.8,0.7 -1.2,0.9c-0.4,0.3 -0.9,0.4 -1.3,0.3c-0.8,-0.1 -1.4,-0.5 -1.8,-1.1c-0.4,-0.6 -0.7,-1.3 -0.7,-2.2c0.1,-0.1 0.2,-0.2 0.3,-0.3c0.1,-0.1 0.2,-0.1 0.2,-0.2l0.1,-0.1c0.1,0.7 0.4,1.1 0.7,1.4c0.2,0.3 0.6,0.4 1,0.3c0.5,-0.1 1.1,-0.5 1.8,-1.3c0.5,-0.6 0.8,-1.1 1,-1.7c0.2,-0.6 0.1,-1 0,-1.4c-0.1,-0.4 -0.4,-0.7 -0.8,-0.8c-0.4,-0.2 -0.8,-0.2 -1.2,0.1c0,0.8 -0.2,1.3 -0.5,1.6c-0.3,0.3 -0.8,0.4 -1.3,0.4c-0.3,0 -0.5,-0.1 -0.8,-0.2c-0.3,-0.1 -0.5,-0.3 -0.6,-0.5c-0.2,-0.2 -0.3,-0.4 -0.4,-0.7c-0.3,-0 -0.3,-0.3 -0.3,-0.6Z" style="fill:#a00;fill-rule:nonzero;"/></g></g><g><g><path d="M445.9,225.7c0.9,-0.7 1.9,-1.4 2.8,-1.9c0.9,-0.5 1.8,-1 2.6,-1.4c0.8,-0.4 1.5,-0.7 2.1,-0.9c0.6,-0.2 1.1,-0.4 1.5,-0.5l0,-1l-9.3,0l-1.5,-1.5l13.5,0l1.6,1.5l-2.9,0l0,15.4l-0.6,-0.6l-0.7,-1.3c-0.7,-1.3 -1.5,-2.3 -2.3,-3c-0.8,-0.7 -1.6,-1.2 -2.3,-1.6c-0.8,-0.4 -1.7,-0.6 -2.6,-0.6l-0.4,-0.5c-0.2,-0.2 -0.4,-0.4 -0.6,-0.8c-0.2,-0.3 -0.5,-0.7 -0.9,-1.3Zm6.6,8.7c-0.1,-0.2 -0.3,-0.5 -0.6,-0.8c-0.3,-0.3 -0.6,-0.6 -1,-1c-0.4,-0.3 -0.8,-0.7 -1.3,-1c-0.5,-0.3 -1,-0.6 -1.6,-0.9l0.7,-0.8c0.9,0.3 1.6,0.6 2.1,1.1c0.6,0.4 1,0.8 1.5,1.3c0.2,0.2 0.4,0.5 0.6,0.7c0.2,0.3 0.3,0.5 0.5,0.8l-0.5,0.3l-0.3,0.2l-0.1,0.1Zm2.4,-11.2c-0.3,0.1 -0.6,0.2 -0.9,0.3c-0.3,0.1 -0.6,0.2 -1,0.4c-0.6,0.2 -1.2,0.6 -1.9,1c-0.7,0.4 -1.5,0.9 -2.2,1.6c0.1,0.1 0.4,0.2 0.9,0.4c0.5,0.2 1,0.5 1.6,0.9c0.6,0.4 1.2,0.9 1.8,1.6c0.6,0.6 1.2,1.4 1.7,2.4l-0,-8.6Z" style="fill:#a00;fill-rule:nonzero;"/></g></g><g><g><path d="M840.3,225c1.4,0.6 2.3,1.4 2.9,2.5c0.1,-0.9 0.5,-1.7 1.2,-2.2c0.6,-0.5 1.3,-0.7 2,-0.7c0.7,0 1.3,0.3 1.9,0.9c0.6,0.6 0.8,1.4 0.8,2.6c0,0.4 0.1,0.5 0.4,0.3c0.7,-0.7 1.1,-1.4 1.2,-2.1c0.1,-0.7 -0.3,-1.3 -1,-1.8c-0.5,-0.4 -1.2,-0.9 -1.9,-1.3c-0.7,-0.4 -1.6,-0.8 -2.5,-1.2c-0.5,-0.2 -0.9,-0.4 -1.3,-0.7c-0.4,-0.3 -0.7,-0.7 -0.9,-1c-0.2,-0.3 -0.3,-0.8 -0.3,-1.2c0,-0.4 0.1,-0.8 0.4,-1.1c0.3,-0.4 0.6,-0.6 1,-0.5c0.3,0 0.6,0.2 0.8,0.5c0.2,0.3 0.3,0.6 0.3,0.9c0,0.3 -0.2,0.6 -0.6,0.7c-0.1,0.1 0,0.3 0.2,0.6c0.2,0.2 0.5,0.4 0.9,0.6c0.4,0.1 0.9,0.3 1.3,0.5c0.4,0.2 1,0.5 1.6,0.8c1.1,0.4 1.9,1.1 2.4,1.9c0.5,0.8 0.7,1.7 0.7,2.6c0,0.9 -0.3,1.7 -0.8,2.6c-0.5,0.8 -1.2,1.4 -2.1,1.8c-0.2,0.1 -0.4,0.1 -0.6,0.2c-0.2,0 -0.4,0 -0.6,-0.2c-0.1,-0.1 -0.1,-0.2 -0.1,-0.4c0,-0.2 0,-0.3 0.1,-0.6c0,-0.2 0.1,-0.4 0.1,-0.6c0.1,-0.2 0.1,-0.3 0.1,-0.4c0.1,-0.3 0.1,-0.6 0,-1c-0.1,-0.4 -0.2,-0.7 -0.3,-1.1c-0.2,-0.3 -0.4,-0.6 -0.7,-0.8c-0.3,-0.2 -0.6,-0.3 -1,-0.2c-0.3,0.1 -0.5,0.2 -0.8,0.4c-0.2,0.2 -0.4,0.5 -0.6,0.8c-0.1,0.3 -0.2,0.6 -0.2,0.9c0,0.3 0.1,0.5 0.4,0.7c0.2,-0.3 0.6,-0.3 1,0c0.2,0.2 0.4,0.4 0.5,0.7c0.1,0.3 0.1,0.6 0,0.9c-0.1,0.3 -0.2,0.5 -0.4,0.7c-0.2,0.2 -0.5,0.3 -0.8,0.2c-0.4,0 -0.7,-0.1 -1.1,-0.4c0,1.1 -0.3,2 -0.9,2.9c-0.5,0.9 -1.4,1.5 -2.5,2c-0.2,0.1 -0.4,0.2 -0.7,0.2c-0.3,0 -0.5,-0.1 -0.7,-0.3c-0.1,-0.1 -0.1,-0.2 -0.1,-0.4c0,-0.2 0,-0.4 0.1,-0.7c0.1,-0.3 0.1,-0.5 0.2,-0.7c0.1,-0.2 0.1,-0.4 0.1,-0.5c0.1,-0.3 0.1,-0.8 0.1,-1.2c-0.1,-0.5 -0.2,-0.9 -0.4,-1.3c-0.2,-0.4 -0.5,-0.7 -0.8,-0.9c-0.3,-0.2 -0.7,-0.3 -1.2,-0.2c-0.3,0 -0.6,0.2 -0.8,0.5c-0.3,0.3 -0.5,0.6 -0.7,0.9c-0.2,0.3 -0.3,0.7 -0.3,1c0,0.3 0.1,0.6 0.5,0.7c0.3,-0.4 0.7,-0.4 1.2,0c0.3,0.2 0.5,0.5 0.6,0.8c0.1,0.3 0.1,0.7 0,1c-0.1,0.3 -0.2,0.6 -0.5,0.8c-0.2,0.2 -0.6,0.3 -1,0.3c-0.2,0 -0.5,0 -0.7,-0.1c-0.2,-0.1 -0.5,-0.3 -0.7,-0.6c-0.2,-0.2 -0.4,-0.5 -0.5,-0.9c-0.1,-0.3 -0.2,-0.7 -0.2,-1.1c-0.1,-0.9 0,-1.7 0.3,-2.4c0.3,-0.7 0.7,-1.2 1.2,-1.5c0.5,-0.4 1.1,-0.6 1.7,-0.6c0.6,-0.1 1.2,0 1.8,0.3c0.5,0.3 1,0.7 1.4,1.3c0.4,0.6 0.6,1.4 0.6,2.4c0,0.2 0,0.4 0.1,0.4c0.1,0 0.2,0 0.4,-0.1c0.8,-0.9 1.3,-1.7 1.3,-2.5c0.1,-0.8 -0.3,-1.5 -1.1,-2.1c-0.6,-0.4 -1.4,-0.9 -2.3,-1.5c-0.9,-0.5 -1.9,-1 -2.9,-1.4c-0.6,-0.2 -1.1,-0.5 -1.5,-0.9c-0.4,-0.4 -0.8,-0.8 -1,-1.2c-0.2,-0.4 -0.3,-0.9 -0.3,-1.4c0,-0.5 0.2,-0.9 0.5,-1.3c0.3,-0.4 0.7,-0.6 1.1,-0.6c0.4,0 0.7,0.2 0.9,0.5c0.2,0.3 0.3,0.6 0.3,1c0,0.4 -0.3,0.7 -0.7,0.9c0,0.1 0,0.4 0.3,0.7c0.2,0.3 0.6,0.5 1.1,0.7c0.5,0.2 1,0.4 1.5,0.6c0.2,0.1 0.8,0.4 1.6,0.7Z" style="fill:#a00;fill-rule:nonzero;"/></g></g><g><g><path d="M160.5,142c1.4,0.6 2.3,1.4 2.9,2.5c0.1,-0.9 0.5,-1.7 1.2,-2.2c0.6,-0.5 1.3,-0.7 2,-0.7c0.7,0 1.3,0.3 1.9,0.9c0.6,0.6 0.8,1.4 0.8,2.6c0,0.4 0.1,0.5 0.4,0.3c0.7,-0.7 1.1,-1.4 1.2,-2.1c0.1,-0.7 -0.3,-1.3 -1,-1.8c-0.5,-0.4 -1.2,-0.9 -1.9,-1.3c-0.7,-0.4 -1.6,-0.8 -2.5,-1.2c-0.5,-0.2 -0.9,-0.4 -1.3,-0.7c-0.4,-0.3 -0.7,-0.7 -0.9,-1c-0.2,-0.4 -0.3,-0.8 -0.3,-1.2c0,-0.4 0.1,-0.8 0.4,-1.1c0.3,-0.4 0.6,-0.6 1,-0.5c0.3,0 0.6,0.2 0.8,0.5c0.2,0.3 0.3,0.6 0.3,0.9c0,0.3 -0.2,0.6 -0.6,0.7c-0.1,0.1 0,0.3 0.2,0.6c0.2,0.2 0.5,0.4 0.9,0.6c0.4,0.1 0.9,0.3 1.3,0.5c0.4,0.2 1,0.5 1.6,0.8c1.1,0.4 1.9,1.1 2.4,1.9c0.5,0.8 0.7,1.7 0.7,2.6c0,0.9 -0.3,1.7 -0.8,2.6c-0.5,0.8 -1.2,1.4 -2.1,1.8c-0.2,0.1 -0.4,0.1 -0.6,0.2c-0.2,0.1 -0.4,0 -0.6,-0.2c-0.1,-0.1 -0.1,-0.2 -0.1,-0.4c0,-0.2 0,-0.3 0.1,-0.6c0,-0.2 0.1,-0.4 0.1,-0.6c0.1,-0.2 0.1,-0.3 0.1,-0.4c0.1,-0.3 0.1,-0.6 0,-1c-0.1,-0.4 -0.2,-0.7 -0.3,-1.1c-0.2,-0.3 -0.4,-0.6 -0.7,-0.8c-0.3,-0.2 -0.6,-0.3 -1,-0.2c-0.3,0.1 -0.5,0.2 -0.8,0.4c-0.2,0.2 -0.4,0.5 -0.6,0.8c-0.1,0.3 -0.2,0.6 -0.2,0.9c0,0.3 0.1,0.5 0.4,0.7c0.2,-0.3 0.6,-0.3 1,0c0.2,0.2 0.4,0.4 0.5,0.7c0.1,0.3 0.1,0.6 0,0.9c-0.1,0.3 -0.2,0.5 -0.4,0.7c-0.2,0.2 -0.5,0.3 -0.8,0.2c-0.4,0 -0.7,-0.1 -1.1,-0.4c-0.1,1.1 -0.3,2 -0.9,2.9c-0.5,0.9 -1.4,1.5 -2.5,2c-0.2,0.1 -0.4,0.2 -0.7,0.2c-0.3,0 -0.5,-0.1 -0.7,-0.3c-0.1,-0.1 -0.1,-0.2 -0.1,-0.4c0,-0.2 0,-0.4 0.1,-0.7c0,-0.2 0.1,-0.5 0.2,-0.7c0.1,-0.2 0.1,-0.4 0.1,-0.5c0.1,-0.3 0.1,-0.8 0.1,-1.2c-0.1,-0.5 -0.2,-0.9 -0.4,-1.3c-0.2,-0.4 -0.5,-0.7 -0.8,-0.9c-0.3,-0.2 -0.7,-0.3 -1.2,-0.2c-0.3,0 -0.6,0.2 -0.8,0.5c-0.3,0.3 -0.5,0.6 -0.7,0.9c-0.2,0.3 -0.3,0.7 -0.3,1c0,0.3 0.1,0.6 0.5,0.7c0.3,-0.4 0.7,-0.4 1.2,0c0.3,0.2 0.5,0.5 0.6,0.8c0.1,0.3 0.1,0.7 0,1c-0.1,0.3 -0.2,0.6 -0.5,0.8c-0.2,0.2 -0.6,0.3 -1,0.3c-0.2,0 -0.5,0 -0.7,-0.1c-0.2,-0.1 -0.5,-0.3 -0.7,-0.6c-0.2,-0.2 -0.4,-0.5 -0.5,-0.9c-0.1,-0.3 -0.2,-0.7 -0.2,-1.1c-0.1,-0.9 0,-1.7 0.3,-2.4c0.3,-0.7 0.7,-1.2 1.2,-1.5c0.5,-0.4 1.1,-0.6 1.7,-0.6c0.6,-0.1 1.2,0 1.8,0.3c0.5,0.3 1,0.7 1.4,1.3c0.4,0.6 0.6,1.4 0.6,2.4c0,0.2 0,0.4 0.1,0.4c0.1,0 0.2,0 0.4,-0.1c0.8,-0.9 1.3,-1.7 1.3,-2.5c0.1,-0.8 -0.3,-1.5 -1.1,-2.1c-0.6,-0.4 -1.4,-0.9 -2.3,-1.5c-0.9,-0.6 -1.9,-1 -2.9,-1.4c-0.6,-0.2 -1.1,-0.5 -1.5,-0.9c-0.4,-0.4 -0.8,-0.8 -1,-1.2c-0.2,-0.4 -0.3,-0.9 -0.3,-1.4c0,-0.5 0.2,-0.9 0.5,-1.3c0.3,-0.4 0.7,-0.6 1.1,-0.6c0.4,0 0.7,0.2 0.9,0.5c0.2,0.3 0.3,0.6 0.3,1c0,0.4 -0.3,0.7 -0.7,0.9c0,0.1 0,0.4 0.3,0.7c0.2,0.3 0.6,0.5 1.1,0.7c0.5,0.2 1,0.4 1.5,0.6c0.3,0.1 0.9,0.4 1.6,0.7Z" style="fill:#a00;fill-rule:nonzero;"/></g></g><g><g><path d="M526.8,29.8c0,-0.8 -0.3,-1.1 -0.9,-1.1c0.1,-1.1 0.5,-1.6 1.3,-1.6c0.7,0 1,0.7 1,2.1l0,7.6c0,0.5 0.1,0.7 0.4,0.7c0.3,0 0.6,-0.2 0.8,-0.5c0.3,-0.3 0.5,-0.7 0.7,-1.2c0.2,-0.5 0.4,-1 0.6,-1.5c0.2,-0.6 0.4,-1.1 0.5,-1.6c0.2,-0.5 0.3,-1 0.5,-1.4c0.1,-0.4 0.3,-0.7 0.4,-0.8c0.2,-0.3 0.4,-0.5 0.7,-0.6c0.3,-0.1 0.5,-0.1 0.7,-0.1c0.7,0 1.1,0.8 1.1,2.3l0,7.6c0,0.3 0,0.6 0.1,0.7c0.1,0.2 0.3,0.2 0.6,0.2l0.1,0c0,1.1 -0.4,1.7 -1.1,1.7c-0.8,0 -1.2,-0.8 -1.2,-2.5l0,-7.4c0,-0.5 -0.1,-0.7 -0.3,-0.7c-0.2,0 -0.4,0.3 -0.6,0.8c-0.2,0.5 -0.4,1.1 -0.7,1.8c-0.3,0.7 -0.5,1.5 -0.9,2.3c-0.3,0.8 -0.7,1.4 -1.1,2c-0.2,0.3 -0.5,0.5 -0.9,0.6c-0.3,0.1 -0.6,0.2 -0.9,0.2c-0.7,0 -1.1,-0.8 -1.1,-2.4l0,-7.2l0.2,0Z" style="fill:#f00;fill-rule:nonzero;"/></g></g><g><g><path d="M609.8,35.3c0,0.4 -0.2,0.6 -0.6,0.6c-0.5,0 -0.7,-0.2 -0.7,-0.6c0,-0.4 0.2,-0.7 0.7,-0.7c0.4,0 0.6,0.2 0.6,0.7Zm0.4,-2.2c0,0.5 -0.2,0.7 -0.6,0.7c-0.5,0 -0.7,-0.2 -0.7,-0.7c0,-0.4 0.2,-0.6 0.7,-0.6c0.5,0 0.6,0.2 0.6,0.6Zm0,4.3c0,0.4 -0.2,0.7 -0.7,0.7c-0.5,0 -0.7,-0.2 -0.7,-0.7c0,-0.5 0.2,-0.7 0.7,-0.7c0.5,0 0.7,0.2 0.7,0.7Zm1.3,-6.1c0,0.4 -0.2,0.7 -0.7,0.7c-0.4,0 -0.7,-0.2 -0.7,-0.6c0,-0.5 0.2,-0.7 0.7,-0.7c0.4,0 0.7,0.2 0.7,0.6Zm0,7.9c0,0.4 -0.2,0.7 -0.7,0.7c-0.4,0 -0.7,-0.2 -0.7,-0.7c0,-0.5 0.2,-0.7 0.7,-0.7c0.4,0 0.7,0.3 0.7,0.7Zm1.8,-9.1c0,0.4 -0.2,0.7 -0.7,0.7c-0.4,0 -0.6,-0.2 -0.6,-0.7c0,-0.5 0.2,-0.7 0.6,-0.7c0.4,0.1 0.7,0.3 0.7,0.7Zm0,10.3c0,0.5 -0.2,0.7 -0.7,0.7c-0.4,0 -0.6,-0.2 -0.6,-0.6c0,-0.5 0.2,-0.7 0.6,-0.7c0.4,0 0.7,0.2 0.7,0.6Zm2.1,-10.7c0,0.4 -0.2,0.7 -0.6,0.7c-0.5,0 -0.7,-0.2 -0.7,-0.7c0,-0.5 0.2,-0.7 0.7,-0.7c0.3,0 0.6,0.3 0.6,0.7Zm0,11.1c0,0.4 -0.2,0.7 -0.6,0.7c-0.5,0 -0.7,-0.2 -0.7,-0.7c0,-0.5 0.2,-0.7 0.7,-0.7c0.3,0.1 0.6,0.3 0.6,0.7Zm2.1,-10.7c0,0.4 -0.2,0.7 -0.6,0.7c-0.5,0 -0.7,-0.2 -0.7,-0.7c0,-0.5 0.2,-0.7 0.7,-0.7c0.4,0.1 0.6,0.3 0.6,0.7Zm0,10.3c0,0.4 -0.2,0.6 -0.6,0.6c-0.5,0 -0.7,-0.2 -0.7,-0.6c0,-0.5 0.2,-0.7 0.7,-0.7c0.4,0.1 0.6,0.3 0.6,0.7Zm1.8,-9.1c0,0.4 -0.2,0.7 -0.7,0.7c-0.5,0 -0.7,-0.2 -0.7,-0.7c0,-0.5 0.2,-0.7 0.7,-0.7c0.5,0 0.7,0.3 0.7,0.7Zm0,7.9c0,0.4 -0.2,0.7 -0.7,0.7c-0.5,0 -0.7,-0.2 -0.7,-0.7c0,-0.5 0.2,-0.7 0.7,-0.7c0.5,0 0.7,0.3 0.7,0.7Zm1.2,-6.1c0,0.5 -0.2,0.7 -0.7,0.7c-0.4,0 -0.7,-0.2 -0.7,-0.7c0,-0.4 0.2,-0.6 0.7,-0.6c0.5,0 0.7,0.2 0.7,0.6Zm0,4.3c0,0.4 -0.2,0.7 -0.7,0.7c-0.4,0 -0.7,-0.2 -0.7,-0.7c0,-0.5 0.2,-0.7 0.7,-0.7c0.5,0 0.7,0.2 0.7,0.7Zm0.5,-2.1c0,0.4 -0.2,0.6 -0.6,0.6c-0.5,0 -0.7,-0.2 -0.7,-0.6c0,-0.4 0.2,-0.7 0.7,-0.7c0.4,0 0.6,0.2 0.6,0.7Z" style="fill:#f00;fill-rule:nonzero;"/></g></g><g><path d="M680,197.3c0,-0.3 0,-0.6 0.2,-0.9c0.1,-0.3 0.3,-0.5 0.6,-0.7c0.3,-0.2 0.5,-0.3 0.9,-0.4c0.3,-0.1 0.6,-0.1 1,0c0.2,-0.5 0.3,-1 0.1,-1.4c-0.2,-0.4 -0.4,-0.8 -0.7,-1.1c-0.3,-0.3 -0.7,-0.4 -1.1,-0.5c-0.4,-0.1 -0.7,0 -1,0.3c0,0.3 -0.1,0.5 -0.2,0.7c-0.1,0.2 -0.2,0.4 -0.4,0.6c-0.2,0.2 -0.4,0.3 -0.6,0.5c-0.2,0.1 -0.4,0.2 -0.7,0.2c-0.4,0 -0.8,-0.1 -1.1,-0.3c-0.3,-0.2 -0.5,-0.5 -0.7,-0.8c-0.2,-0.3 -0.2,-0.6 -0.2,-1c0,-0.4 0.1,-0.7 0.2,-0.9c0.1,-0.3 0.3,-0.5 0.6,-0.7c0.3,-0.2 0.6,-0.3 1,-0.3c0.1,-0.2 0.2,-0.3 0.1,-0.5c0,-0.2 -0.1,-0.3 -0.3,-0.5c-0.1,-0.2 -0.3,-0.3 -0.4,-0.5c-0.2,-0.1 -0.3,-0.3 -0.4,-0.4l-1.5,0l-1.5,-1.5l20.3,0l1.5,1.5l-7.3,0l0,2.4c0.3,-0.1 0.6,-0.1 1.1,-0.1c0.5,0 0.9,0.1 1.4,0.2c0.5,0.2 1,0.5 1.5,0.9c0.5,0.4 0.9,1 1.2,1.8c0.1,0.2 0.1,0.6 0.1,1.1c0,0.5 -0.1,0.9 -0.3,1.4c-0.2,0.4 -0.5,0.8 -0.9,1c-0.4,0.2 -1,0.3 -1.8,0.1c-0.5,-0.1 -0.8,-0.4 -1,-0.8c-0.2,-0.4 -0.3,-0.8 -0.2,-1.2c0.1,-0.4 0.3,-0.7 0.6,-0.9c0.3,-0.2 0.6,-0.3 0.9,-0.3c0.3,0 0.6,0.1 0.9,0.2c0.3,0.2 0.4,0.4 0.5,0.7c0.2,-0.3 0.2,-0.6 0.1,-1c-0.1,-0.3 -0.4,-0.6 -0.7,-0.9c-0.4,-0.3 -0.9,-0.4 -1.5,-0.5c-0.6,-0.1 -1.3,-0.1 -2,0.1l0,11l-0.7,-0.9c-0.3,-1.1 -0.6,-2.1 -1,-2.8c-0.4,-0.7 -0.8,-1.3 -1.1,-1.7c-0.4,-0.4 -0.7,-0.7 -1,-0.8c-0.3,-0.1 -0.5,-0.2 -0.6,-0.2c-0.1,0.5 -0.4,0.9 -0.8,1.2c-0.4,0.3 -0.8,0.4 -1.3,0.3c-0.5,0 -0.9,-0.2 -1.3,-0.5c-0.2,-0.1 -0.4,-0.6 -0.5,-1.2Zm4.5,-1.2c0.4,0.2 0.7,0.5 1,0.8c0.3,0.3 0.6,0.6 0.8,1c0.2,0.3 0.4,0.6 0.5,0.8c0.1,0.2 0.2,0.4 0.2,0.4l0,-5.8c-0.9,0 -1.6,-0.2 -2.2,-0.6c-0.6,-0.4 -1.1,-0.8 -1.4,-1.3c-0.3,-0.5 -0.6,-1 -0.8,-1.5c-0.2,-0.5 -0.3,-0.9 -0.3,-1.1l-3.7,0c0.1,0.2 0.2,0.4 0.3,0.6c0.1,0.2 0.2,0.5 0.4,0.9c1,0.2 1.9,0.6 2.5,1.2c0.7,0.5 1.2,1.1 1.6,1.7c0.4,0.6 0.7,1.2 0.8,1.8c0.1,0.5 0.2,0.9 0.3,1.1Zm-0.6,-7.4c-0.2,0.5 -0.2,1 0,1.4c0.2,0.4 0.5,0.7 0.8,0.9c0.4,0.2 0.8,0.3 1.2,0.4c0.4,0 0.8,-0.1 1,-0.3l0,-2.4l-3,0Z" style="fill:#f00;fill-rule:nonzero;"/></g><g><path d="M836,201.3c-0.3,0 -0.6,0 -0.8,-0.1c-0.3,-0.1 -0.5,-0.2 -0.7,-0.4c-0.2,-0.2 -0.4,-0.5 -0.6,-0.8c-0.2,-0.3 -0.3,-0.8 -0.3,-1.3c0,-0.7 0.1,-1.4 0.4,-1.9c0.3,-0.5 0.6,-1 1.1,-1.3c0.4,-0.3 1,-0.5 1.5,-0.7c0.6,-0.1 1.1,-0.1 1.7,-0.1c0.6,0.1 1.1,0.3 1.6,0.6c0.5,0.3 0.9,0.7 1.2,1.2c0.3,0.4 0.4,0.8 0.4,1.3c0,0.5 0,0.9 -0.1,1.3c-0.1,0.4 -0.2,0.8 -0.3,1.1c-0.1,0.3 -0.3,0.6 -0.3,0.8c1,-0.6 1.7,-1.1 2.2,-1.7c0.4,-0.5 0.7,-1.1 0.7,-1.6c0,-0.5 -0.1,-1.1 -0.4,-1.6c-0.3,-0.5 -0.7,-1 -1.2,-1.5c-0.5,-0.5 -1,-0.9 -1.6,-1.4c-0.6,-0.5 -1.2,-0.9 -1.7,-1.3c-0.5,-0.4 -1,-0.8 -1.4,-1.2c-0.4,-0.4 -0.6,-0.8 -0.7,-1.1c-0.2,-0.7 -0.2,-1.3 0.1,-1.8c0.3,-0.5 0.7,-0.8 1.2,-1.1c0.5,-0.3 1,-0.4 1.5,-0.4c0.5,0 0.8,0.1 1,0.3c0.1,0.1 0,0.3 -0.2,0.5c-0.2,0.2 -0.4,0.4 -0.6,0.6c-0.3,0.3 -0.5,0.6 -0.5,0.9c-0.1,0.3 0,0.6 0.1,0.9c0.1,0.3 0.4,0.6 0.7,0.9c0.3,0.3 0.7,0.6 1.2,0.9c0.6,0.5 1.2,1 1.8,1.5c0.5,0.5 1,1.1 1.4,1.6c0.4,0.5 0.7,1 0.9,1.5c0.2,0.5 0.3,0.9 0.3,1.2c0,0.7 -0.1,1.3 -0.3,1.9c-0.2,0.6 -0.6,1.1 -1,1.5c-0.4,0.4 -0.9,0.8 -1.4,1.1c-0.5,0.3 -1.1,0.6 -1.6,0.8c-0.5,0.2 -1.1,0.4 -1.6,0.5c-0.5,0.1 -0.9,0.2 -1.3,0.2c0.6,-0.9 1,-1.6 1.2,-2.3c0.2,-0.7 0.4,-1.3 0.4,-1.8c0,-0.5 0,-0.9 -0.1,-1.2c-0.1,-0.3 -0.3,-0.6 -0.4,-0.7c-0.3,-0.4 -0.6,-0.6 -1,-0.7c-0.3,-0.1 -0.7,-0.2 -1,-0.1c-0.3,0 -0.6,0.1 -0.9,0.3c-0.3,0.2 -0.5,0.3 -0.6,0.5c-0.1,0.2 -0.2,0.4 -0.2,0.6c0,0.2 0.1,0.4 0.3,0.5c0.6,-0.1 1,0 1.3,0.3c0.3,0.3 0.4,0.6 0.4,1c0,0.4 -0.1,0.8 -0.4,1.1c-0.5,0.4 -0.9,0.6 -1.4,0.7Z" style="fill:#f00;fill-rule:nonzero;"/></g></g><g id="Layer_3"><g><g><path d="M474.2,279.5c-0.4,-0.2 -0.7,-0.5 -0.9,-0.8c-0.3,-0.3 -0.5,-0.7 -0.6,-1.1c-0.2,-0.4 -0.3,-0.8 -0.3,-1.2c-0.1,-0.4 -0.1,-0.8 -0.1,-1.2l0,-1.4c0,-0.5 0.1,-1 0.2,-1.5l1.8,1.3c-0.2,0.2 -0.4,0.6 -0.6,0.9c-0.2,0.4 -0.2,0.8 -0.1,1.2c0.1,0.4 0.3,0.8 0.6,1.1c0.3,0.3 1,0.7 1.8,0.9c1,0.3 1.9,0.4 2.9,0.4l2.9,0c1,0 1.9,0.2 2.9,0.5c0.9,0.3 1.8,0.9 2.7,1.7l0,-6l1.7,1.4l0,8.2l-1,-0.8c-0.4,-0.9 -1,-1.5 -1.6,-1.9c-0.7,-0.4 -1.4,-0.6 -2.2,-0.7c-0.8,-0.1 -1.6,-0.1 -2.5,0c-0.9,0.1 -1.8,0.1 -2.7,0.2c-0.9,0 -1.8,0 -2.6,-0.1c-0.8,-0.4 -1.5,-0.7 -2.3,-1.1Z" style="fill:#f00;fill-rule:nonzero;"/></g></g><path d="M230.2,105.8l8.3,0l1.2,1.5l-1.8,0c-0.7,0.1 -1.2,0.4 -1.6,0.8c-0.3,0.4 -0.5,0.8 -0.6,1.3c-0.1,0.5 -0.1,1.1 0,1.7c0.1,0.6 0.2,1.2 0.3,1.8c0,0.2 0.1,0.5 0.2,0.8c0.1,0.4 0.1,0.8 0.2,1.2c0,0.5 0.1,0.9 0.1,1.4l0,1.5c0,0.5 -0.1,0.9 -0.1,1.3c-0.1,0.4 -0.2,0.7 -0.3,1c-0.3,0.4 -0.6,0.7 -1,1.1c-0.4,0.4 -0.8,0.7 -1.3,0.9c-0.4,0.2 -0.8,0.4 -1.2,0.4c-0.3,0 -0.6,0 -0.7,-0.3l0,-0.3c0,-0.1 0.1,-0.2 0.1,-0.2c0.1,-0.1 0.2,-0.1 0.4,-0.2c0.2,0 0.4,-0.1 0.7,-0.3c0.3,-0.2 0.6,-0.4 0.8,-0.6c0.3,-0.3 0.5,-0.6 0.7,-0.9c0.2,-0.4 0.2,-0.8 0.2,-1.2c-0.1,-0.4 -0.2,-1 -0.4,-1.7c-0.2,-0.7 -0.3,-1.5 -0.4,-2.2c-0.1,-0.8 -0.2,-1.6 -0.2,-2.3c0,-0.8 0.1,-1.4 0.3,-1.9c0,-0.1 0.1,-0.3 0.2,-0.5c0.1,-0.2 0.2,-0.4 0.3,-0.7c0.1,-0.3 0.3,-0.6 0.5,-0.9c0.2,-0.3 0.5,-0.6 0.7,-0.9l-4.1,0l-1.5,-1.6Z" style="fill:#f00;fill-rule:nonzero;"/><path d="M761.3,190.2c-0.5,0.4 -0.8,0.8 -0.9,1.2c-0.1,0.4 -0.2,0.8 -0.1,1.2c0.1,0.4 0.2,0.7 0.4,1.1c0.2,0.3 0.5,0.6 0.7,0.9c0.3,0.3 0.5,0.5 0.8,0.7c0.3,0.2 0.5,0.3 0.6,0.4c0.3,0.1 0.7,0.3 1.2,0.5c0.5,0.2 1,0.5 1.5,0.7c0.5,0.3 1,0.5 1.4,0.7c0.4,0.2 0.7,0.4 0.9,0.5c1,0.6 1.7,1.3 2.2,2.1c0.4,0.8 0.7,1.5 0.9,2.2c0.2,0.8 0.2,1.6 0.1,2.4c0,0 -0.1,0 -0.2,-0.1c-0.2,0 -0.5,-0.2 -1,-0.3c0.3,-0.6 0.4,-1.2 0.2,-1.7c-0.2,-0.5 -0.4,-0.9 -0.8,-1.3c-0.4,-0.4 -0.8,-0.7 -1.2,-0.9c-0.5,-0.2 -0.8,-0.4 -1.1,-0.4c-0.9,-0.4 -1.7,-0.7 -2.3,-0.9c-0.6,-0.3 -1.1,-0.5 -1.5,-0.7c-0.4,-0.2 -0.6,-0.3 -0.8,-0.4c-0.2,-0.1 -0.2,-0.1 -0.2,-0.2c-0.9,-0.7 -1.6,-1.4 -2.1,-2.1c-0.4,-0.7 -0.7,-1.4 -0.9,-2c-0.2,-0.6 -0.2,-1.1 -0.2,-1.5l0,-0.6c0.1,-0.6 0.2,-1.1 0.4,-1.6c0.2,-0.4 0.4,-0.8 0.7,-1.2c0.2,-0.3 0.5,-0.6 0.8,-0.8c0.3,-0.2 0.6,-0.4 0.9,-0.6c0.7,-0.3 1.4,-0.5 2.2,-0.5c0.7,0 1.3,0 1.8,0.2c0.5,0.2 0.9,0.4 1.2,0.6c0.3,0.2 0.6,0.5 0.8,0.8c0.2,0.3 0.3,0.5 0.5,0.8c0.2,0.7 0.3,1.3 0.4,1.8c0,0.6 0,1 -0.2,1.5c-0.2,0.4 -0.5,0.7 -1,1c-0.5,0.2 -1.1,0.4 -1.9,0.4c-0.8,0 -1.4,-0.1 -1.9,-0.4c-0.5,-0.3 -0.8,-0.6 -1.1,-1c-0.3,-0.4 -0.4,-0.7 -0.5,-1.1c-0.1,-0.4 -0.1,-0.6 -0.1,-0.7c0,-0.2 -0.1,-0.4 -0.2,-0.5l-0.4,-0.2Zm1.5,-0.9c0,0 0,0.1 -0.1,0.3c-0.1,0.2 -0.1,0.4 0,0.7c0.1,0.3 0.2,0.6 0.4,0.9c0.2,0.3 0.7,0.7 1.2,1c0.1,0 0.3,0.1 0.5,0.1c0.2,0 0.4,0.1 0.7,0.1c0.2,0 0.5,-0.1 0.7,-0.2c0.2,-0.1 0.5,-0.3 0.7,-0.6c0.1,-0.1 0.1,-0.3 0.1,-0.5c0,-0.2 -0.1,-0.5 -0.2,-0.8c-0.1,-0.3 -0.3,-0.5 -0.6,-0.7c-0.3,-0.2 -0.7,-0.4 -1.2,-0.4c-0.8,-0.1 -1.4,-0.1 -1.7,0c-0.2,-0 -0.4,0.1 -0.5,0.1Z" style="fill:#f00;fill-rule:nonzero;"/><path d="M490.7,304.7l-7.9,7.7l-4.5,0l10.7,-7.9l1.7,0.2Z" style="fill:#a00;fill-rule:nonzero;"/></g></svg>